/* XPM */
static char * bibtex14_xpm[] = {
"24 24 55 1",
" 	c None s backgroundToolBarColor",
".	c #353535",
"+	c #877D55",
"@	c #B9AD74",
"#	c #606060",
"$	c #878585",
"%	c #A89C6A",
"&	c #726A49",
"*	c #070705",
"=	c #9A9A9A",
"-	c #59533A",
";	c #938960",
">	c #C9C7BF",
",	c #7C7C7C",
"'	c #3D3928",
")	c #AFA379",
"!	c #AFAEA8",
"~	c #938A63",
"{	c #3F3B2A",
"]	c #8E865E",
"^	c #B6AA72",
"/	c #424242",
"(	c #373737",
"_	c #4E4C41",
":	c #565344",
"<	c #746D4E",
"[	c #7E7652",
"}	c #8E845A",
"|	c #B0A46E",
"1	c #775E5E",
"2	c #F5F4F3",
"3	c #D7D5D0",
"4	c #BCB8AC",
"5	c #A39F94",
"6	c #817E71",
"7	c #605D4F",
"8	c #8A8058",
"9	c #92885C",
"0	c #826A6A",
"a	c #CACACA",
"b	c #FFFFFF",
"c	c #E6E6E5",
"d	c #D0D0D0",
"e	c #CCCCCC",
"f	c #C4C2B8",
"g	c #B5B2A5",
"h	c #918F84",
"i	c #59564C",
"j	c #F6F6F6",
"k	c #F3F2F0",
"l	c #AEAEAE",
"m	c #727272",
"n	c #909090",
"o	c #DCDCDC",
"p	c #A3A3A3",
"                        ",
"                        ",
"         .............. ",
"        .+@@@@@@@@@@@+# ",
"       $.@@@@@@@@@@@+.  ",
"       .%&*@@@@@@@@@.=  ",
"      .+@--@@*@-;@@+.>  ",
"     $.@-*@@@@;*@@@.=>, ",
"     .%@*@*@*@'*@@+.>>..",
"    .+@*;--&&&*)*@.=>!, ",
"   $.@@@*-@*@*~~*@.>>,= ",
"   .%@@@@@@@@@{{@.=>!.  ",
"  .+@@@@@@@@@@@@+.>>,=  ",
" $.]^@@@@@@@@@@@.=>!.   ",
" /(_:<[}|@@@@@@+.>>,=   ",
" /12234567:<[89.>>!.    ",
" /0abbb2cdefghi>>>,=    ",
"  $#$ajbbbbbkcc>>!.     ",
"    l=mnajbbbbbo>,=     ",
"       l=mnajbbc>.      ",
"          l=mnac,=      ",
"             l=m.       ",
"               p        ",
"                        "};
