/* XPM */
static char * dropdown_xpm[] = {
"10 24 3 1",
" 	c None s backgroundToolBarColor",
".	c #292C29",
"+	c #B3B3B3",
"          ",
"          ",
"          ",
"          ",
"          ",
"          ",
"          ",
"          ",
"          ",
"          ",
"  .    .  ",
" ...  ... ",
"  ......  ",
"   ....   ",
"    ..    ",
"    ++    ",
"          ",
"          ",
"          ",
"          ",
"          ",
"          ",
"          ",
"          "};
