/* XPM */
static char * dvipdf4_xpm[] = {
"24 24 38 1",
" 	c None s backgroundToolBarColor",
".	c #4C4C4C",
"+	c #000000",
"@	c #7C7C7C",
"#	c #577A4D",
"$	c #4C6B43",
"%	c #37452B",
"&	c #76996C",
"*	c #9BB594",
"=	c #648C58",
"-	c #DAE3D6",
";	c #445636",
">	c #67865E",
",	c #A7BDA0",
"'	c #8EAB86",
")	c #526741",
"!	c #425D3A",
"~	c #4C603C",
"{	c #566B43",
"]	c #5A7046",
"^	c #295E29",
"/	c #5ABD5A",
"(	c #D37F71",
"_	c #CE918A",
":	c #D4897A",
"<	c #67102D",
"[	c #488148",
"}	c #C47474",
"|	c #D69788",
"1	c #4CA14C",
"2	c #4D904D",
"3	c #CB8984",
"4	c #D79C8D",
"5	c #C8807D",
"6	c #4FA64F",
"7	c #5A5A5A",
"8	c #B50000",
"9	c #AA7979",
"     .+.      ++++      ",
"   @+##$+@   +++%++     ",
"   +&**&=+  +   +%+     ",
"  .#*-*&=$.      +;+    ",
"  +>,*'==$+      +)+    ",
"  .#&&==#!.    ++))~++  ",
"   +#==#$+      +{]{+   ",
"   @+!$!+@       +)+    ",
"     .+.          +     ",
"                        ",
"                  +     ",
"^^^/ ^  ^ ^      +(+    ",
"^  ^ ^  ^ ^     +_:<+   ",
"^  ^ [  [ ^    +}_|<<+  ",
"^  ^ 1221 ^   +}3_4<<<+ ",
"^  ^  [[  ^  +}53_4<<<<+",
"^^^/  66  ^  +}53_|<<<+ ",
"              7+}5:<<+  ",
"                7+(<+   ",
"8889 8889 8889    ++    ",
"8  8 8  8 8             ",
"8889 8  8 889           ",
"8    8  8 8             ",
"8    8889 8             "};
