/* XPM */
static char * execerror12_xpm[] = {
"24 24 22 1",
" 	c None s backgroundToolBarColor",
".	c #B09400",
"+	c #605000",
"@	c #9C8400",
"#	c #FFD906",
"$	c #FED90A",
"%	c #957F0D",
"&	c #DEBD0E",
"*	c #6F5D00",
"=	c #8F7900",
"-	c #655500",
";	c #3A3A3A",
">	c #000000",
",	c #65635C",
"'	c #9F9D96",
")	c #807D74",
"!	c #3C3C3C",
"~	c #76746B",
"{	c #5D5C55",
"]	c #6D6B63",
"^	c #B3B3B1",
"/	c #8C8B89",
"                        ",
"                        ",
"      .++.              ",
"      @##@.             ",
"     +$###+             ",
"    ..#++#..            ",
"    +$#++#$+            ",
"   ..##++##..           ",
"   +$##%%##$+           ",
"  ..###&&###..          ",
"  +####**###$+          ",
"  +##########+          ",
"   =--------=           ",
"                        ",
"                  ;;    ",
"               >,>''>,> ",
"               ,''')))! ",
"               >''~){]> ",
"              ;''~>>^,,;",
"              ;'))>/^,!;",
"               >){^^)!> ",
"               ,)],,!!! ",
"               >!>,!>!> ",
"                  ;;    "};
