/* XPM */
static char * execdvips36_xpm[] = {
"24 24 25 1",
" 	c None s backgroundToolBarColor",
".	c #295E29",
"+	c #5ABD5A",
"@	c #488148",
"#	c #818181",
"$	c #4CA14C",
"%	c #4D904D",
"&	c #ADADAD",
"*	c #4FA64F",
"=	c #6E6E6E",
"-	c #545454",
";	c #999999",
">	c #3A3A3A",
",	c #000000",
"'	c #65635C",
")	c #9F9D96",
"!	c #0037C4",
"~	c #6C84B7",
"{	c #807D74",
"]	c #3C3C3C",
"^	c #76746B",
"/	c #5D5C55",
"(	c #6D6B63",
"_	c #B3B3B1",
":	c #8C8B89",
"                        ",
"       ...+ .  .  .     ",
"       .  . .  .  .     ",
"       .  . .  .  .     ",
"       .  . @  @  .     ",
"    #  .  . $%%$  .     ",
"   #&  .  .  @@   .     ",
"  #&   ...+  **   .     ",
"  =                     ",
"  -                     ",
"  #                     ",
"   - ;                  ",
"    ;-                  ",
"   ;--                  ",
"                  >>    ",
"               ,',)),', ",
"   !!!~ ~!!~   '))){{{] ",
"   !  ! !  !   ,))^{/(, ",
"   !  ! !     >))^,,_''>",
"   !!!~ ~!!~  >){{,:_']>",
"   !       !   ,{/__{], ",
"   !    !  !   '{('']]] ",
"   !    ~!!~   ,],'],], ",
"                  >>    "};
