/* XPM */
static char * execviewdvi11_xpm[] = {
"24 24 19 1",
" 	c None s backgroundToolBarColor",
".	c #295E29",
"+	c #5ABD5A",
"@	c #488148",
"#	c #4CA14C",
"$	c #4D904D",
"%	c #000000",
"&	c #4FA64F",
"*	c #FFFFFF",
"=	c #3A3A3A",
"-	c #65635C",
";	c #9F9D96",
">	c #807D74",
",	c #3C3C3C",
"'	c #76746B",
")	c #5D5C55",
"!	c #6D6B63",
"~	c #B3B3B1",
"{	c #8C8B89",
"           ...+ .  .  . ",
"           .  . .  .  . ",
"           .  . .  .  . ",
"           .  . @  @  . ",
"           .  . #$$#  . ",
"           .  .  @@   . ",
"     %%    ...+  &&   . ",
"    %  %                ",
"   %   %                ",
"  %   %      %%         ",
" %%         %  %        ",
"%* %       %   %        ",
"%** %  %% %   %         ",
"%** %%%* %%             ",
" %  % %** %       ==    ",
"  %%  %** %    %-%;;%-% ",
"       %  %    -;;;>>>, ",
"        %%     %;;'>)!% ",
"              =;;'%%~--=",
"              =;>>%{~-,=",
"               %>)~~>,% ",
"               ->!--,,, ",
"               %,%-,%,% ",
"                  ==    "};
