/* XPM */
static char * ltx_symb_turn_off_xpm[] = {
"24 24 20 1",
" 	c None s backgroundToolBarColor",
".	c #AEAEAE",
"+	c #000000",
"@	c #0A0A0A",
"#	c #1F1F1F",
"$	c #C9C9C9",
"%	c #353535",
"&	c #999999",
"*	c #4D4D4D",
"=	c #777777",
"-	c #141414",
";	c #878787",
">	c #686868",
",	c #5A5A5A",
"'	c #FF5858",
")	c #FFB9B9",
"!	c #FF0000",
"~	c #FF9595",
"{	c #414141",
"]	c #292929",
"                        ",
"                        ",
"                        ",
".+@########++@$         ",
" %@&       .*@=         ",
" $--$        ;%         ",
"  .@%         >$        ",
"   ,+=                  ",
"    %@.                 ",
"    $--$          '   ' ",
"     &+*         )!' '!)",
"      *@$          ~!~  ",
"     $#;           ~!~  ",
"     %,          )!' '!)",
"    >%            '   ' ",
"   ;#$        &$        ",
"  .-.        ${         ",
"  ];        .],         ",
" *]>>>>>>>>]++.         ",
"${{{{{{{{{{{{*          ",
"                        ",
"                        ",
"                        ",
"                        "};
