/* XPM */
static char * ltx_symb_turn_on_xpm[] = {
"24 24 19 1",
" 	c None s backgroundToolBarColor",
".	c #AEAEAE",
"+	c #000000",
"@	c #0A0A0A",
"#	c #1F1F1F",
"$	c #C9C9C9",
"%	c #353535",
"&	c #999999",
"*	c #4D4D4D",
"=	c #777777",
"-	c #141414",
";	c #878787",
">	c #686868",
",	c #5A5A5A",
"'	c #79DECA",
")	c #00AA88",
"!	c #5DC8B3",
"~	c #414141",
"{	c #292929",
"                        ",
"                        ",
"                        ",
".+@########++@$         ",
" %@&       .*@=         ",
" $--$        ;%         ",
"  .@%         >$        ",
"   ,+=                 '",
"    %@.               ) ",
"    $--$             )) ",
"     &+*        ')! ))  ",
"      *@$        ))))   ",
"     $#;         !))    ",
"     %,          ')'    ",
"    >%                  ",
"   ;#$        &$        ",
"  .-.        $~         ",
"  {;        .{,         ",
" *{>>>>>>>>{++.         ",
"$~~~~~~~~~~~~*          ",
"                        ",
"                        ",
"                        ",
"                        "};
