/* XPM */
static char *noway20[] = {
/* columns rows colors chars-per-pixel */
"20 20 9 1",
"  c red",
". c #FF0404",
"X c #FD0F0F",
"o c #F91919",
"O c #F82828",
"+ c #F33636",
"@ c #ED4A4A",
"# c #FEFEFE",
"$ c None",
/* pixels */
"$$$$$$@+OXXO+@$$$$$$",
"$$$$OO.      .OO$$$$",
"$$$@.          .@$$$",
"$$@.            .@$$",
"$O.              .O$",
"$o                o$",
"@.                .@",
"+                  +",
"o##################o",
"o##################o",
"o##################o",
"o##################o",
"+                  +",
"@.                .@",
"$o                o$",
"$O.              .O$",
"$$@.            .@$$",
"$$$@.          .@$$$",
"$$$$OO.      .OO$$$$",
"$$$$$$@+OXXO+@$$$$$$"
};
