#define wutz_width 24
#define wutz_height 24
static unsigned char wutz_bits[] = {
   0x00, 0x00, 0x00, 0x00, 0xff, 0x00, 0xc0, 0xff, 0x03, 0xf0, 0xff, 0x0f,
   0xf8, 0xff, 0x1f, 0xf8, 0xff, 0x1f, 0xfc, 0xff, 0x3f, 0xfc, 0xff, 0x3f,
   0xfe, 0xff, 0x7f, 0x02, 0x00, 0x40, 0x01, 0x00, 0x80, 0x01, 0x00, 0x80,
   0x01, 0x00, 0x80, 0x01, 0x00, 0x80, 0x02, 0x00, 0x40, 0xfe, 0xff, 0x7f,
   0xfc, 0xff, 0x3f, 0xfc, 0xff, 0x3f, 0xf8, 0xff, 0x1f, 0xf8, 0xff, 0x1f,
   0xf0, 0xff, 0x0f, 0xc0, 0xff, 0x03, 0x00, 0xff, 0x00, 0x00, 0x00, 0x00 };
