/* Created with The GIMP */
#define preview16_width 16
#define preview16_height 16
static unsigned char preview16_bits[] = {
   0xff, 0xff, 0x01, 0x81, 0x81, 0x80, 0xbd, 0xad, 0x49, 0xa8, 0xc9, 0x91,
   0x49, 0x90, 0x9e, 0x99, 0x1c, 0xac, 0x7d, 0x84, 0xf1, 0x80, 0xf2, 0x87,
   0x22, 0xfa, 0x24, 0x52, 0x24, 0x5a, 0xc8, 0x94 };
