/* XPM */
static char * preview12_xpm[] = {
"12 12 17 1",
" 	c None",
".	c #020202",
"+	c #1E1E1A",
"@	c #626256",
"#	c #7D7D70",
"$	c #8A8A7A",
"%	c #969686",
"&	c #A6A692",
"*	c #B2B29E",
"=	c #46463E",
"-	c #BEBEAA",
";	c #1A1A16",
">	c #CECEB2",
",	c #363632",
"'	c #6E6E62",
")	c #0E0E0E",
"!	c #52524A",
"............",
".>>>>$*>>>>.",
".>>>>&>>>>>.",
".'.,@+##&$%.",
".>)>'#>>&!>.",
".>=%#%%>@&>.",
"..,@>*>-@&>=",
" # #,>>#-%%.",
" .  @,%>>>>.",
"  .  !;#>>>.",
"  .  .   ,;.",
"   .  ..  .."};
