/* XPM */
static char * preview20_xpm[] = {
"20 20 17 1",
" 	c None",
".	c #000200",
"+	c #151614",
"@	c #20211F",
"#	c #31312A",
"$	c #3D3C35",
"%	c #474439",
"&	c #504F48",
"*	c #626054",
"=	c #727063",
"-	c #7E7E6F",
";	c #888A7A",
">	c #969987",
",	c #A9A992",
"'	c #B8B8A1",
")	c #C6C5AA",
"!	c #CFCDB1",
" .@@@@@@@@@@@@@@@@. ",
" %!!!!!!!''!!!!!!!% ",
" %!!!!!!)&>!!!!!!!% ",
" %!!!!!!>*'!!!!!!!% ",
" %!!!!!)&*')')!!''% ",
" @&@+#*&*=#;&*)'%-% ",
" %!,>!,=;,)!)=,-$'% ",
" %!,>!'=&-!!!'*#;!% ",
" %!,-),=>','!!$&)!% ",
" %!)$$'&&=%)!,+;!!% ",
" %!','!);;!!)%**!!% ",
" $;*$!!!!!!!;%'->)% ",
"  *=$!!!!!!)*-!'*;% ",
" @>;*='!!!!),)!!''% ",
" .  *&&,!!!!!!!!!!% ",
"    ..+##@>,,,,,,,$ ",
"  .  .  . ......... ",
"  .  .  . ...  . .  ",
"   .  .  . . ...  . ",
"   .              . "};
