/* XPM */
static char * nwork20_xpm[] = {
"20 20 17 1",
" 	c None",
".	c #000100",
"+	c #262825",
"@	c #2B2D2A",
"#	c #444643",
"$	c #575956",
"%	c #726D6B",
"&	c #D16668",
"*	c #FF6467",
"=	c #979794",
"-	c #E4999A",
";	c #B1B3B0",
">	c #FF9797",
",	c #C9CBC8",
"'	c #D3D5D2",
")	c #E5E7E3",
"!	c #FDFFFB",
"         **         ",
"        >**>        ",
"        ****        ",
"       >****>       ",
"       **>>**       ",
"      >**!!**>      ",
"      **>!!>**      ",
"     >**!!)!**>     ",
"     **>!'.)>**     ",
"    >*%$$;,!!**>    ",
"    *&=;.=!!!>**    ",
"   >*&;@@=!!!!**>   ",
"   **>,$=;!!!!>**   ",
"  >**)#%;=!!!!!**>  ",
"  **>=,;=';!,#;>**  ",
" >**)%!)%!!=+..,**> ",
" **>='!)%!;....@-** ",
">**!;!!!='#####$=**>",
"********************",
"********************"};
