/* XPM */
static char * view15_xpm[] = {
"24 24 4 1",
" 	c None s backgroundToolBarColor",
".	c #000000",
"+	c #565656",
"@	c #FFFFFF",
"                        ",
"                        ",
"                        ",
"                        ",
"        ...             ",
"       .+  .            ",
"      .+   .            ",
"     .+   .+            ",
"    .+   .+         ... ",
"   .+              .+ ..",
"  ....            .+   .",
" .@@ +.          .+   .+",
" .@@@ +.        .+   .+ ",
" .@@@  .  .... .+       ",
" . @   ...@@ +..        ",
" +.   +. .@@@ +.        ",
"  +.++.  .@@@  .        ",
"   +..   . @   .        ",
"         +.   +.        ",
"          +.++.         ",
"           +..          ",
"                        ",
"                        ",
"                        "};
