#define audio_width 20
#define audio_height 23
static char audio_bits[] = {
 0x00,0x00,0x00,0x00,0x00,0x00,0xff,0xff,0x07,0x01,0x00,0x0c,0x01,0x40,0x0c,
 0x01,0x91,0x0c,0x81,0x21,0x0d,0x41,0x49,0x0d,0x3d,0x51,0x0d,0x05,0x55,0x0d,
 0x05,0x55,0x0d,0x05,0x55,0x0d,0x3d,0x55,0x0d,0x7d,0x51,0x0d,0xc1,0x49,0x0d,
 0x81,0x21,0x0d,0x01,0x91,0x0c,0x01,0x40,0x0c,0x01,0x00,0x0c,0xff,0xff,0x0f,
 0xfe,0xff,0x0f,0x00,0x00,0x00,0x00,0x00,0x00};
