#define noname_width 32
#define noname_height 30
static char noname_bits[] = {
 0x00,0x00,0x00,0x00,0x00,0x00,0x00,0x00,0x00,0x00,0x00,0x00,0x00,0x10,0x00,
 0x00,0x00,0x18,0x00,0x00,0x00,0x14,0x00,0x00,0x00,0xf2,0x73,0x00,0x00,0x01,
 0x8a,0x00,0x80,0x00,0x8a,0x00,0x00,0x01,0x8a,0x00,0x00,0xf2,0x73,0x00,0x00,
 0x14,0x00,0x00,0x00,0x18,0x00,0x00,0x00,0x10,0x00,0x00,0x00,0x00,0x00,0x00,
 0x00,0x00,0x00,0x00,0x00,0x00,0x00,0x00,0x00,0x00,0x00,0x00,0x00,0x00,0x00,
 0x00,0x00,0x00,0x00,0x00,0xc0,0x03,0x40,0x00,0x40,0x04,0x40,0x00,0x40,0x64,
 0x4c,0x02,0xc0,0x93,0x52,0x01,0x40,0xe4,0xc2,0x00,0x40,0x94,0x52,0x01,0xc0,
 0x63,0x4d,0x02,0x00,0x00,0x00,0x00,0x00,0x00,0x00,0x00,0x00,0x00,0x00,0x00};
