/* XPM */
static char *back-up[] = {
/* width height num_colors chars_per_pixel */
"    32    30        8            1",
/* colors */
". c #000000",
"# c #330099",
"a c #888888",
"b c #aaaaaa",
"c c #b2b2b2 s backgroundToolBarColor",
"d c #cccccc",
"e c #eeeeee",
"f c #ffffff",
/* pixels */
"cccccccccccccccccccccccccccccccc",
"cccccccccccccccccccccccccccccccc",
"cccccccccccccccccccccccccccccccc",
"cccccccccccc#ccccccccccccccccccc",
"ccccccccccc##ccccccccccccccccccc",
"cccccccccc#f#ccccccccccccccccccc",
"ccccccccc#fe######cb###bcccccccc",
"cccccccc#fedeeeee#c#aea#abcccccc",
"ccccccc#feddddddd#b#eed#abcccccc",
"cccccccc#eddddddd#a#ada#abcccccc",
"cccccccba#ed######ab###abbcccccc",
"ccccccccba#e#aaaaaacaaabbbcccccc",
"cccccccccba##acccccccccccccccccc",
"ccccccccccba#acccccccccccccccccc",
"cccccccccccbaacccccccccccccccccc",
"ccccccccccccbacccccccccccccccccc",
"cccccccccccccbcccccccccccccccccc",
"cccccccccccccccccccccccccccccccc",
"cccccccccccccccccccccccccccccccc",
"cccccccccccccccccccccccccccccccc",
"cccccccccccccccccccccccccccccccc",
"cccccccccccccccccccccccccccccccc",
"cccccccccccccccccccccccccccccccc",
"cccccccccccccccccccccccccccccccc",
"cccccccccccccccccccccccccccccccc",
"cccccccccccccccccccccccccccccccc",
"cccccccccccccccccccccccccccccccc",
"cccccccccccccccccccccccccccccccc",
"cccccccccccccccccccccccccccccccc",
"cccccccccccccccccccccccccccccccc"
};
