#define binary_width 20
#define binary_height 23
static char binary_bits[] = {
 0x00,0x00,0x00,0x00,0x00,0x00,0xff,0x3f,0x00,0x01,0x60,0x00,0x01,0xa0,0x00,
 0x71,0x26,0x01,0xd9,0x26,0x02,0xd9,0xe6,0x07,0xd9,0xc6,0x0f,0xd9,0x06,0x0c,
 0x71,0x06,0x0c,0x01,0x00,0x0c,0x99,0x03,0x0c,0xd9,0x06,0x0c,0xd9,0x06,0x0c,
 0xd9,0x06,0x0c,0xd9,0x06,0x0c,0x99,0x03,0x0c,0x01,0x00,0x0c,0xff,0xff,0x0f,
 0xfe,0xff,0x0f,0x00,0x00,0x00,0x00,0x00,0x00};
