#define disk_width 32
#define disk_height 32
static char disk_bits[] = {
 0x00,0x00,0x00,0x00,0x00,0x00,0x00,0x00,0x00,0x00,0x00,0x00,0x00,0x00,0x00,
 0x00,0x00,0x00,0x00,0x00,0x00,0x00,0x00,0x00,0x00,0x00,0x00,0x00,0x00,0x00,
 0x00,0x00,0x00,0x00,0x00,0x00,0xfc,0xff,0xff,0x3f,0x04,0x00,0x00,0x20,0x04,
 0x00,0x00,0x20,0xe4,0x00,0x00,0x20,0x04,0x00,0x00,0x20,0x04,0x00,0x00,0x20,
 0x04,0xf0,0x0f,0x20,0xe4,0xff,0xff,0x27,0x04,0xf0,0x0f,0x20,0x04,0x00,0x00,
 0x20,0x04,0x00,0x00,0x20,0x04,0x00,0x00,0x20,0x04,0x00,0x00,0x20,0xfc,0xff,
 0xff,0x3f,0x00,0x00,0x00,0x00,0x00,0x00,0x00,0x00,0x00,0x00,0x00,0x00,0x00,
 0x00,0x00,0x00,0x00,0x00,0x00,0x00,0x00,0x00,0x00,0x00,0x00,0x00,0x00,0x00,
 0x00,0x00,0x00,0x00,0x00,0x00,0x00,0x00};
