#define diskette.bm_width 32
#define diskette.bm_height 32
static char diskette.bm_bits[] = {
   0x00, 0x00, 0x00, 0x00, 0x00, 0x00, 0x00, 0x00, 0x00, 0x00, 0x00, 0x00,
   0x00, 0x00, 0x00, 0x00, 0xf0, 0xff, 0xff, 0x01, 0x10, 0x02, 0x20, 0x02,
   0x10, 0x02, 0x27, 0x04, 0x10, 0x02, 0x27, 0x04, 0x10, 0x02, 0x27, 0x04,
   0x10, 0x02, 0x27, 0x04, 0x10, 0x02, 0x27, 0x04, 0x10, 0x02, 0x20, 0x04,
   0x10, 0xfe, 0x3f, 0x04, 0x10, 0x00, 0x00, 0x04, 0x10, 0x00, 0x00, 0x04,
   0x10, 0x00, 0x00, 0x04, 0x10, 0x00, 0x00, 0x04, 0x10, 0x00, 0x00, 0x04,
   0x10, 0x00, 0x00, 0x04, 0x10, 0x00, 0x00, 0x04, 0x10, 0x00, 0x00, 0x04,
   0x10, 0x00, 0x00, 0x04, 0x10, 0x00, 0x00, 0x04, 0x10, 0x00, 0x00, 0x04,
   0x10, 0x00, 0x00, 0x04, 0x10, 0x00, 0x00, 0x04, 0xf0, 0xff, 0xff, 0x07,
   0x00, 0x00, 0x00, 0x00, 0x00, 0x00, 0x00, 0x00, 0x00, 0x00, 0x00, 0x00,
   0x00, 0x00, 0x00, 0x00, 0x00, 0x00, 0x00, 0x00};
