#define movie_width 20
#define movie_height 23
static char movie_bits[] = {
   0x00, 0x00, 0x00, 0x00, 0x00, 0x00, 0xff, 0xff, 0x07, 0xf9, 0xff, 0x0c,
   0x19, 0xe0, 0x0c, 0x1f, 0xc0, 0x0f, 0x19, 0xe0, 0x0c, 0x19, 0xc0, 0x0c,
   0x1f, 0xe0, 0x0f, 0x59, 0xd5, 0x0c, 0xf9, 0xff, 0x0c, 0xff, 0xff, 0x0f,
   0x19, 0xe0, 0x0c, 0x19, 0xc0, 0x0c, 0x1f, 0xe0, 0x0f, 0x19, 0xc0, 0x0c,
   0x19, 0xe0, 0x0c, 0x5f, 0xd5, 0x0f, 0xf9, 0xff, 0x0c, 0xff, 0xff, 0x0f,
   0xfe, 0xff, 0x0f, 0x00, 0x00, 0x00, 0x00, 0x00, 0x00};
