#define noname_width 32
#define noname_height 30
static char noname_bits[] = {
 0x00,0x00,0x00,0x00,0x00,0x00,0x00,0x00,0x00,0x30,0x0c,0x00,0x00,0x30,0x0c,
 0x00,0x00,0x38,0x0e,0x00,0x00,0x80,0x01,0x00,0x00,0xfe,0x3f,0x00,0x00,0xa1,
 0x43,0x00,0x00,0x21,0x43,0x00,0x00,0xe1,0x43,0x00,0x00,0x39,0x4f,0x00,0x00,
 0x91,0x45,0x00,0x00,0x11,0x44,0x00,0x00,0x11,0x44,0x00,0x00,0x1f,0x7c,0x00,
 0x00,0x19,0x64,0x00,0x00,0x1f,0x7c,0x00,0x00,0x00,0x00,0x00,0x00,0x00,0x00,
 0x00,0x00,0x00,0x00,0x00,0x00,0x00,0x00,0x00,0x00,0x00,0x00,0x00,0x00,0x00,
 0x00,0x00,0x00,0x00,0x00,0x00,0x00,0x00,0x00,0x00,0x00,0x00,0x00,0x00,0x00,
 0x00,0x00,0x00,0x00,0x00,0x00,0x00,0x00,0x00,0x00,0x00,0x00,0x00,0x00,0x00};
