#define folder_width 20
#define folder_height 23
static char folder_bits[] = {
 0x00,0x00,0x00,0x00,0x00,0x00,0xf8,0x01,0x00,0x04,0x02,0x00,0x02,0x04,0x00,
 0x01,0xf8,0x01,0x01,0x00,0x02,0x01,0x00,0x04,0x01,0x00,0x0e,0x01,0x00,0x0d,
 0x01,0x00,0x0e,0x01,0x00,0x0d,0x01,0x00,0x0e,0x01,0x00,0x0d,0x01,0x00,0x0e,
 0x01,0x00,0x0d,0x01,0x00,0x0e,0x55,0x55,0x0d,0xaa,0xaa,0x0e,0xfc,0xff,0x07,
 0xf8,0xff,0x03,0x00,0x00,0x00,0x00,0x00,0x00};
