#define noname_width 34
#define noname_height 30
static char noname_bits[] = {
 0x00,0x00,0x00,0x00,0x00,0x00,0x00,0x00,0x00,0x00,0x00,0x00,0x00,0x00,0x00,
 0x00,0x00,0x10,0x00,0x00,0x00,0x00,0x30,0x00,0x00,0x00,0x00,0x50,0x00,0x00,
 0x00,0x9c,0x9f,0x00,0x00,0x00,0xa2,0x00,0x01,0x00,0x00,0xa2,0x00,0x02,0x00,
 0x00,0xa2,0x00,0x01,0x00,0x00,0x9c,0x9f,0x00,0x00,0x00,0x00,0x50,0x00,0x00,
 0x00,0x00,0x30,0x00,0x00,0x00,0x00,0x10,0x00,0x00,0x00,0x00,0x00,0x00,0x00,
 0x00,0x00,0x00,0x00,0x00,0x00,0x00,0x00,0x00,0x00,0x00,0x00,0x00,0x00,0x00,
 0x00,0x00,0x00,0x00,0x00,0x00,0x00,0x00,0x00,0x00,0x1e,0x00,0x00,0x80,0x00,
 0x02,0x00,0x00,0x80,0x00,0x82,0x69,0x65,0xea,0x00,0x5e,0x5a,0x95,0x96,0x00,
 0x42,0x4a,0xe5,0x92,0x00,0x42,0x8a,0x92,0x92,0x00,0x82,0x89,0x62,0xe3,0x00,
 0x00,0x00,0x00,0x00,0x00,0x00,0x00,0x00,0x00,0x00,0x00,0x00,0x00,0x00,0x00};
