/* XPM */
static char *forw-up[] = {
/* width height num_colors chars_per_pixel */
"    34    30       18            1",
/* colors */
". c #000000",
"# c #252525",
"a c #330099",
"b c #4c4c4c",
"c c #555555",
"d c #6666cc",
"e c #737373",
"f c #777777",
"g c #888888",
"h c #999999",
"i c #9999ff",
"j c #aaaaaa",
"k c #b2b2b2 s backgroundToolBarColor",
"l c #bbbbbb",
"m c #cccccc",
"n c #e1e1e1",
"o c #eeeeee",
"p c #ffffff",
/* pixels */
"kkkkkkkkkkkkkkkkkkkkkkkkkkkkkkkkkk",
"kkkkkkkkkkkkkkkkkkkkkkkkkkkkkkkkkk",
"kkkkkkkkkkkkkkkkkkkkkkkkkkkkkkkkkk",
"kkkkkkkkkkkkkkkkkkkkakkkkkkkkkkkkk",
"kkkkkkkkkkkkkkkkkkkkaakkkkkkkkkkkk",
"kkkkkkkkkkkkkkkkkkkkaoakkkkkkkkkkk",
"kkkkkkkkkjaaajkaaaaaaooakkkkkkkkkk",
"kkkkkkkkkagogakaooooomooakkkkkkkkk",
"kkkkkkkkkaoomagaommmmmmooakkkkkkkk",
"kkkkkkkkkagmgagaommmmmmoagjkkkkkkk",
"kkkkkkkkkjaaagjaaaaaamoagjkkkkkkkk",
"kkkkkkkkkkjggjjkggggaoagjkkkkkkkkk",
"kkkkkkkkkkkkkkkkkkkkaagjkkkkkkkkkk",
"kkkkkkkkkkkkkkkkkkkkagjkkkkkkkkkkk",
"kkkkkkkkkkkkkkkkkkkkkjkkkkkkkkkkkk",
"kkkkkkkkkkkkkkkkkkkkkkkkkkkkkkkkkk",
"kkkkkkkkkkkkkkkkkkkkkkkkkkkkkkkkkk",
"kkkkkkkkkkkkkkkkkkkkkkkkkkkkkkkkkk",
"kkkkkkkkkkkkkkkkkkkkkkkkkkkkkkkkkk",
"kkkkkkkkkkkkkkkkkkkkkkkkkkkkkkkkkk",
"kkkkkkkkkkkkkkkkkkkkkkkkkkkkkkkkkk",
"kkkkkkkkkkkkkkkkkkkkkkkkkkkkkkkkkk",
"kkkkkkkkkkkkkkkkkkkkkkkkkkkkkkkkkk",
"kkkkkkkkkkkkkkkkkkkkkkkkkkkkkkkkkk",
"kkkkkkkkkkkkkkkkkkkkkkkkkkkkkkkkkk",
"kkkkkkkkkkkkkkkkkkkkkkkkkkkkkkkkkk",
"kkkkkkkkkkkkkkkkkkkkkkkkkkkkkkkkkk",
"kkkkkkkkkkkkkkkkkkkkkkkkkkkkkkkkkk",
"kkkkkkkkkkkkkkkkkkkkkkkkkkkkkkkkkk",
"kkkkkkkkkkkkkkkkkkkkkkkkkkkkkkkkkk"
};
