#define glossary_width 32
#define glossary_height 32
static char glossary_bits[] = {
 0x00,0x00,0x00,0x00,0x00,0x00,0x00,0x00,0xc0,0xff,0xff,0x00,0x40,0x00,0x80,
 0x03,0x40,0x00,0x80,0x02,0xf0,0x01,0x80,0x02,0x40,0x00,0x80,0x07,0x40,0x00,
 0x80,0x08,0x40,0x00,0x80,0x08,0xf0,0x01,0x80,0x08,0x40,0x00,0x80,0x08,0x40,
 0x00,0x80,0x04,0x40,0x00,0x80,0x07,0xf0,0x01,0x80,0x04,0x40,0x00,0x80,0x08,
 0x40,0x00,0x80,0x08,0x40,0x00,0x80,0x08,0xf0,0x01,0x80,0x08,0x40,0x00,0x80,
 0x04,0x40,0x00,0x80,0x07,0x40,0x00,0x80,0x04,0xf0,0x01,0x80,0x08,0x40,0x00,
 0x80,0x08,0x40,0x00,0x80,0x08,0x40,0x00,0x80,0x08,0xf0,0x01,0x80,0x07,0x40,
 0x00,0x80,0x02,0xc0,0xff,0xff,0x02,0x00,0x01,0x00,0x02,0x00,0xff,0xff,0x03,
 0x00,0x00,0x00,0x00,0x00,0x00,0x00,0x00};
