#define noname_width 28
#define noname_height 28
static char noname_bits[] = {
 0x00,0x00,0x00,0x00,0x00,0x00,0x00,0x00,0x00,0x00,0x00,0x00,0x00,0x00,0x00,
 0x00,0x00,0x00,0x00,0x00,0x80,0x55,0x05,0x00,0x00,0x00,0x00,0x00,0x60,0xfd,
 0x15,0x00,0x00,0x00,0x00,0x00,0x60,0xff,0x17,0x00,0x00,0x00,0x00,0x00,0x60,
 0xdf,0x57,0x00,0x00,0x00,0x00,0x00,0x60,0xd5,0x57,0x01,0x00,0x00,0x00,0x00,
 0x60,0xf5,0x15,0x00,0x00,0x00,0x00,0x00,0x80,0x75,0x15,0x00,0x00,0x00,0x00,
 0x00,0x00,0x56,0x15,0x00,0x00,0x00,0x00,0x00,0x00,0x76,0x01,0x00,0x00,0x00,
 0x00,0x00,0x00,0x76,0x01,0x00,0x00,0x00,0x00,0x00,0x00,0x55,0x05,0x00,0x00,
 0x00,0x00,0x00,0x00,0x00,0x00,0x00};
