#define noname_width 32
#define noname_height 30
static char noname_bits[] = {
 0x00,0x00,0x00,0x00,0x00,0x00,0x00,0x00,0x00,0x00,0x00,0x00,0x00,0x54,0x01,
 0x00,0x00,0x00,0x00,0x00,0x00,0x94,0x04,0x00,0x00,0x00,0x00,0x00,0x00,0x24,
 0x12,0x00,0x00,0x00,0x00,0x00,0x00,0x09,0x48,0x00,0x00,0x00,0x00,0x00,0x00,
 0xc2,0x21,0x00,0x00,0x00,0x00,0x00,0x00,0x42,0x20,0x00,0x00,0x00,0x00,0x00,
 0x00,0x42,0x20,0x00,0x00,0x00,0x00,0x00,0x00,0x00,0x00,0x00,0x00,0x00,0x00,
 0x00,0x00,0x00,0x00,0x00,0x00,0x00,0x00,0x00,0x20,0x02,0x00,0x00,0x00,0x00,
 0x00,0x00,0x20,0x32,0x1b,0x03,0x00,0x00,0x00,0x00,0x20,0x4a,0xa5,0x07,0x00,
 0x00,0x00,0x00,0x20,0x32,0x25,0x07,0x00,0x00,0x00,0x00,0x00,0x00,0x00,0x00};
