#define home_width 26
#define home_height 18
static char home_bits[] = {
 0x00,0x00,0x00,0x00,0x00,0x0c,0x00,0x00,0xc0,0xf3,0x0f,0x00,0xe0,0xf3,0x1f,
 0x00,0x50,0xff,0x3f,0x00,0x28,0xfe,0x7f,0x00,0x14,0xfc,0xff,0x00,0x0a,0xf8,
 0xff,0x01,0x06,0x10,0x80,0x00,0x34,0xd3,0xb6,0x00,0x34,0xd3,0xb6,0x00,0x04,
 0x10,0x80,0x00,0x04,0x10,0x80,0x00,0x34,0xd3,0xb6,0x00,0x34,0xd3,0xb6,0x00,
 0x04,0x10,0x86,0x00,0xfc,0xff,0xff,0x00,0x00,0x00,0x00,0x00};
