#define noname_width 32
#define noname_height 30
static char noname_bits[] = {
 0x00,0x00,0x00,0x00,0x00,0x10,0x08,0x00,0x00,0x00,0x00,0x00,0x80,0xff,0xff,
 0x01,0x00,0x00,0x00,0x00,0xa0,0xfe,0xff,0x07,0x00,0x00,0x00,0x00,0x18,0x62,
 0xb3,0x19,0x00,0x00,0x00,0x00,0xf0,0x20,0x91,0x08,0x00,0x00,0x00,0x00,0xc0,
 0x88,0x44,0x02,0x00,0x00,0x00,0x00,0x00,0xbb,0xdd,0x00,0x00,0x00,0x00,0x00,
 0x00,0x00,0xfe,0x3f,0x00,0x00,0x00,0x00,0x00,0xa8,0x20,0x00,0x00,0x00,0x00,
 0x00,0x00,0x2a,0x20,0x00,0x00,0x00,0x00,0x00,0x00,0x88,0xec,0x00,0x00,0x00,
 0x00,0x00,0x00,0x80,0xc0,0x00,0x00,0x00,0x00,0x00,0x00,0x00,0x04,0x00,0x00,
 0x00,0x00,0x00,0x00,0x00,0xfe,0x00,0x00,0x00,0x00,0x00,0x00,0x00,0x00,0x00};
