/* XPM */
static char *hotl-up[] = {
/* width height num_colors chars_per_pixel */
"    32    30       18            1",
/* colors */
". c #b2b2b2 s backgroundToolBarColor",
"# c #0000ef",
"a c #000044",
"b c #444444",
"c c #0000ab",
"d c #aaaaaa",
"e c #ffffff",
"f c #bbbbbb",
"g c #888888",
"h c #000000",
"i c #dddddd",
"j c #555555",
"k c #222222",
"l c #111111",
"m c #9a6633",
"n c #cc9966",
"o c #ffcc66",
"p c #663300",
/* pixels */
"................................",
"............#......#............",
"........#a.##a.#a.##a.#a........",
".......b##ac##ac#ac##ac#a.......",
"......bdd##ac##a##ac##a##a......",
".....bdcd###ac##c##ac##c##a.....",
"....bdddc##e#acfacf#acfacf#a....",
"...##dddd#eee#ag#agf#ag#agf#a...",
"...a#####eeeeeagfagffagfagffa...",
"....a###eeeeeagfagffagfagffa....",
".....a#eeeeeagffgffagffgffa.....",
"......a#eeeagffaffagffaffa......",
".......a#eacffacfacffacfa.......",
"........aa.h#a.ha.h#a.ha........",
"............a......a............",
"...giiifffddddgggjjjjjbbkkkllh..",
"....hhhhhhhhhhhhhhhhhhhhhhhhh...",
".........nomomom.....mo.........",
".........momomom.....mo.........",
".........pnmomoo.....mo.........",
"..........mmoomoom.mmmo.........",
"...........pnoomoommommm........",
".............pmnooooopnm........",
"...............pnnoooomm........",
"................pmnoooom........",
"..................mnooo.........",
"..................pnooo.........",
".................bkllhhh........",
".................bkllhhh........",
"................................"
};
