#define noname_width 32
#define noname_height 30
static char noname_bits[] = {
 0x00,0x02,0x00,0x00,0x00,0x05,0x00,0x00,0x80,0x88,0x00,0x00,0x40,0xd0,0x1e,
 0x00,0x80,0xa0,0x20,0x00,0x00,0x81,0x40,0x00,0x00,0x82,0x8c,0x00,0x00,0x84,
 0xfc,0x00,0x00,0x82,0x9c,0x00,0x00,0xff,0x80,0x00,0x00,0x04,0x80,0x00,0x00,
 0x44,0x9c,0x00,0x00,0x44,0x9c,0x00,0x00,0xe4,0x9c,0x00,0x00,0x04,0x80,0x00,
 0x00,0x04,0x80,0x00,0x00,0xfc,0xff,0x00,0x00,0x00,0x00,0x00,0x00,0x00,0x00,
 0x00,0x00,0x00,0x00,0x00,0x04,0x00,0x00,0x00,0x04,0x00,0x00,0x00,0xb4,0x31,
 0xce,0x38,0x54,0x4a,0x29,0x05,0x54,0x72,0xe9,0x19,0x54,0x4a,0x29,0x20,0x54,
 0xb2,0xce,0x1d,0x00,0x00,0x09,0x00,0x00,0x00,0x06,0x00,0x00,0x00,0x00,0x00};
