/* XPM */
static char *imag-up[] = {
/* width height num_colors chars_per_pixel */
"    32    30       15            1",
/* colors */
". c #000000",
"# c #0000dd",
"a c #00bb00",
"b c #330099",
"c c #336666",
"d c #555555",
"e c #6666cc",
"f c #888888",
"g c #990066",
"h c #aaaaaa",
"i c #b2b2b2 s backgroundToolBarColor",
"j c #cccccc",
"k c #eeeeee",
"l c #ff66cc",
"m c #ffffff",
/* pixels */
"iiiiiiiiibiiiiiiiiiiiiiiiiiiiiii",
"iiiiiiiibmbiiiiiiiiiiiiiiiiiiiii",
"iiiiiiibmkjbiiibiiiiiiiiiiiiiiii",
"iiiiiibmkjjjbibbibbbbhiiiiiiiiii",
"iiiiiiibmkjjjbmbimjhmbhiiiiiiiii",
"iiiiiiifbmkjjjjbhjmjmmbhiiiiiiii",
"iiiiiiihfbmkjjjbhmaammmbiiiiiiii",
"iiiiiiiihfbmkjjbhjaacbdbhiiiiiii",
"iiiiiiiiibmkjjjbhmaaaffbhiiiiiii",
"iiiiiiiibbbbbbbbhjmjmjmbhiiiiiii",
"iiiiiiiiii.hhhfhhmjmjmjbhiiiiiii",
"iiiiiiiiifbjmjgjmj#e#jmbhiiiiiii",
"iiiiiiiihhbmjfgfjme#emjbhiiiiiii",
"iiiiiiiiiibjlggglj#e#jmbhiiiiiii",
"iiiiiiiiiibmjmjmjmjmjmjbhiiiiiii",
"iiiiiiiiiibjmjmjmjmjmjmbhiiiiiii",
"iiiiiiiiiibbbbbbbbbbbbbbhiiiiiii",
"iiiiiiiiiiiiihhhhhhhhhhhhiiiiiii",
"iiiiiiiiiiiiiiiiiiiiiiiiiiiiiiii",
"iiiiiiiiiiiiiiiiiiiiiiiiiiiiiiii",
"iiiiiiiiiiiiiiiiiiiiiiiiiiiiiiii",
"iiiiiiiiiiiiiiiiiiiiiiiiiiiiiiii",
"iiiiiiiiiiiiiiiiiiiiiiiiiiiiiiii",
"iiiiiiiiiiiiiiiiiiiiiiiiiiiiiiii",
"iiiiiiiiiiiiiiiiiiiiiiiiiiiiiiii",
"iiiiiiiiiiiiiiiiiiiiiiiiiiiiiiii",
"iiiiiiiiiiiiiiiiiiiiiiiiiiiiiiii",
"iiiiiiiiiiiiiiiiiiiiiiiiiiiiiiii",
"iiiiiiiiiiiiiiiiiiiiiiiiiiiiiiii",
"iiiiiiiiiiiiiiiiiiiiiiiiiiiiiiii"
};
