#define index_width 20
#define index_height 23
static char index_bits[] = {
 0x00,0x00,0x00,0x00,0x00,0x00,0xff,0xff,0x07,0x01,0x00,0x0c,0x81,0x0f,0x0c,
 0x41,0x18,0x0c,0x21,0x33,0x0c,0xa1,0x25,0x0c,0xc1,0x24,0x0c,0x01,0x32,0x0c,
 0x01,0x19,0x0c,0x81,0x0c,0x0c,0x81,0x06,0x0c,0x01,0x07,0x0c,0x01,0x07,0x0c,
 0x81,0x0c,0x0c,0x81,0x0e,0x0c,0x01,0x07,0x0c,0x01,0x00,0x0c,0xff,0xff,0x0f,
 0xfe,0xff,0x0f,0x00,0x00,0x00,0x00,0x00,0x00};
