#define mail.bm_width 32
#define mail.bm_height 32
static char mail.bm_bits[] = {
   0x00, 0x00, 0x00, 0x00, 0x00, 0x00, 0x00, 0x00, 0x00, 0x00, 0x00, 0x00,
   0x00, 0x00, 0x00, 0x00, 0x00, 0x00, 0x00, 0x00, 0x00, 0x00, 0x00, 0x00,
   0x00, 0x00, 0x00, 0x00, 0xf0, 0xff, 0xff, 0x0f, 0x30, 0x00, 0x00, 0x0c,
   0x50, 0x00, 0x00, 0x0a, 0x90, 0x00, 0x00, 0x09, 0x10, 0x01, 0x80, 0x08,
   0x10, 0x02, 0x40, 0x08, 0x10, 0x04, 0x20, 0x08, 0x10, 0x08, 0x10, 0x08,
   0x10, 0x10, 0x08, 0x08, 0x10, 0x20, 0x04, 0x08, 0x10, 0x40, 0x02, 0x08,
   0x10, 0x80, 0x01, 0x08, 0x10, 0x00, 0x00, 0x08, 0x10, 0x00, 0x00, 0x08,
   0x10, 0x00, 0x00, 0x08, 0x10, 0x00, 0x00, 0x08, 0x10, 0x00, 0x00, 0x08,
   0xf0, 0xff, 0xff, 0x0f, 0x00, 0x00, 0x00, 0x00, 0x00, 0x00, 0x00, 0x00,
   0x00, 0x00, 0x00, 0x00, 0x00, 0x00, 0x00, 0x00, 0x00, 0x00, 0x00, 0x00,
   0x00, 0x00, 0x00, 0x00, 0x00, 0x00, 0x00, 0x00};
