#define notebook.xbm_width 32
#define notebook.xbm_height 32
static char notebook.xbm_bits[] = {
   0x00, 0x00, 0x00, 0x00, 0x00, 0x00, 0x00, 0x00, 0x00, 0x00, 0x00, 0x00,
   0x00, 0x49, 0x02, 0x00, 0x00, 0x49, 0x02, 0x00, 0xc0, 0xff, 0x07, 0x00,
   0x40, 0x49, 0x06, 0x00, 0x40, 0x49, 0x06, 0x00, 0x40, 0x00, 0x1c, 0x00,
   0x40, 0x00, 0x14, 0x00, 0x40, 0x00, 0x14, 0x00, 0x40, 0x00, 0x14, 0x00,
   0x40, 0x00, 0x14, 0x00, 0x40, 0x00, 0x14, 0x00, 0x40, 0x00, 0x14, 0x00,
   0x40, 0x00, 0x14, 0x00, 0x40, 0x00, 0x14, 0x00, 0x40, 0x00, 0x14, 0x00,
   0x40, 0x00, 0x14, 0x00, 0x40, 0x00, 0x14, 0x00, 0x40, 0x00, 0x14, 0x00,
   0x40, 0x00, 0x14, 0x00, 0x40, 0x00, 0x14, 0x00, 0x40, 0x00, 0x14, 0x00,
   0x40, 0x00, 0x14, 0x00, 0xc0, 0xff, 0x17, 0x00, 0x80, 0x00, 0x10, 0x00,
   0x80, 0xff, 0x1f, 0x00, 0x00, 0x00, 0x00, 0x00, 0x00, 0x00, 0x00, 0x00,
   0x00, 0x00, 0x00, 0x00, 0x00, 0x00, 0x00, 0x00};
