#define noname_width 32
#define noname_height 30
static char noname_bits[] = {
 0x00,0x00,0x00,0x00,0x00,0x20,0x00,0x00,0x00,0x60,0x00,0x00,0x00,0xbf,0x30,
 0x00,0x00,0x01,0x49,0x00,0x00,0x01,0x49,0x00,0x00,0xbf,0x30,0x00,0x00,0x60,
 0x00,0x00,0x00,0x20,0x00,0x00,0x00,0x00,0x00,0x00,0x00,0x00,0x00,0x00,0x80,
 0x6d,0xdb,0x00,0x00,0x00,0x00,0x00,0x00,0xdb,0xb6,0x00,0x00,0x00,0x00,0x00,
 0x80,0x6d,0xdb,0x00,0x00,0x00,0x00,0x00,0x80,0xfb,0xef,0x00,0x00,0x00,0x00,
 0x00,0x00,0x00,0x00,0x00,0x00,0x00,0x00,0x00,0x80,0x01,0x00,0x00,0x40,0x02,
 0x00,0x00,0x20,0x74,0x4c,0x01,0x20,0x94,0xd2,0x02,0x20,0x94,0x5e,0x02,0x40,
 0x92,0x42,0x02,0x80,0x71,0x5c,0x02,0x00,0x10,0x00,0x00,0x00,0x10,0x00,0x00};
