/* XPM */
static char *print-up[] = {
/* width height num_colors chars_per_pixel */
"    32    30       18            1",
/* colors */
". c #000000",
"# c #252525",
"a c #330099",
"b c #4c4c4c",
"c c #555555",
"d c #6666cc",
"e c #737373",
"f c #777777",
"g c #888888",
"h c #999999",
"i c #9999ff",
"j c #aaaaaa",
"k c #b2b2b2 s backgroundToolBarColor",
"l c #bbbbbb",
"m c #cccccc",
"n c #e1e1e1",
"o c #eeeeee",
"p c #ffffff",
/* pixels */
"kkkkkkkkkkkkkkkkkkkkkkkkkkkkkkkk",
"kkkkkkkkkkkkkkkkkkkkkkkkkkkkkkkk",
"kkkkkkkkkkkaaaaaaaaakkkkkkkkkkkk",
"kkkkkkkkkkkapppppppakkkkkkkkkkkk",
"kkkkkkkkkkkapfmfoooakkkkkkkkkkkk",
"kkkkkkkkkkkapooooooakkkkkkkkkkkk",
"kkkkkkkkkkkapfmfmfoakkkkkkkkkkkk",
"kkkkkkkkkkkapooooooakkkkkkkkkkkk",
"kkkkkkkkkkkapfffmfoakkkkkkkkkkkk",
"kkkkkkkkkkkapooooooakkkkkkkkkkkk",
"kkkkkkkkaaaaaaaaaaaaaaakkkkkkkkk",
"kkkkkkkkapppppppppppppajkkkkkkkk",
"kkkkkkkkapkkmmmmmmmmmmagjkkkkkkk",
"kkkkkkkkapmmmmmmmmmmmmagjkkkkkkk",
"kkkkkkkkapmmmmmmmmmmmmagjkkkkkkk",
"kkkkkkkkaaaaaaaaaaaaaaagjkkkkkkk",
"kkkkkkkkkamgmgmgmgmgmaggjkkkkkkk",
"kkkkkkkkkaaaaaaaaaaaaagjjkkkkkkk",
"kkkkkkkkkkjggggggggggggjkkkkkkkk",
"kkkkkkkkkkkjjjjjjjjjjjjjkkkkkkkk",
"kkkkkkkkkkkkkkkkkkkkkkkkkkkkkkkk",
"kkkkkkk...kkkkk.kkkkkkkkkkkkkkkk",
"kkkkkkk.kk.kkkkkkkkkkk.kkkkkkkkk",
"kkkkkkk.kk.k.k..k.k.kk..kkkkkkkk",
"kkkkkkk...kk..k.k..k.k.kkkkkkkkk",
"kkkkkkk.kkkk.kk.k.kk.k.kkkkkkkkk",
"kkkkkkk.kkkk.kk.k.kk.k.kkkkkkkkk",
"kkkkkkk.kkkk.kk.k.kk.kk.kkkkkkkk",
"kkkkkkkkkkkkkkkkkkkkkkkkkkkkkkkk",
"kkkkkkkkkkkkkkkkkkkkkkkkkkkkkkkk"
};
