#define noname_width 32
#define noname_height 30
static char noname_bits[] = {
 0x00,0x00,0x00,0x00,0x00,0x00,0x00,0x00,0x00,0xf8,0x0f,0x00,0x00,0x08,0x08,
 0x00,0x00,0xa8,0x08,0x00,0x00,0x08,0x08,0x00,0x00,0xa8,0x0a,0x00,0x00,0x08,
 0x08,0x00,0x00,0xe8,0x0a,0x00,0x00,0x08,0x08,0x00,0x00,0xff,0x7f,0x00,0x00,
 0x01,0x40,0x00,0x00,0x01,0x40,0x00,0x00,0x01,0x40,0x00,0x00,0x01,0x40,0x00,
 0x00,0xff,0x7f,0x00,0x00,0x02,0x20,0x00,0x00,0xfe,0x3f,0x00,0x00,0x00,0x00,
 0x00,0x00,0x00,0x00,0x00,0x00,0x00,0x00,0x00,0x80,0x83,0x00,0x00,0x80,0x04,
 0x40,0x00,0x80,0xd4,0xca,0x00,0x80,0xb3,0x56,0x00,0x80,0x90,0x52,0x00,0x80,
 0x90,0x52,0x00,0x80,0x90,0x92,0x00,0x00,0x00,0x00,0x00,0x00,0x00,0x00,0x00};
