/* XPM */
static char *radio_dn_xpm[] = {
/* width height num_colors chars_per_pixel */
"    16    16        4            1",
/* colors */
". c Black",
"# c #555555",
"a s None c None",
"b c White",
/* pixels */
"aaaaaaaaaaaaaaaa",
"aaaaaa####aaaaaa",
"aaaa##....##aaaa",
"aaa#..aaaa#a#aaa",
"aa#.#aabbbaaaaaa",
"aa#.abbbbbbbaaaa",
"a#.aabbbbbbbaaba",
"a#.abbbbbbbbbaba",
"a#.abbbbbbbbbaba",
"a#.abbbbbbbbbaba",
"a#.abbbbbbbbbaba",
"aa##abbbbbbbabaa",
"aa#aabbbbbbbabaa",
"aaa#aaabbbaabaaa",
"aaaaabaaaabbaaaa",
"aaaaaabbbbaaaaaa",
"aaaaaaaaaaaaaaaa",
};
