/* XPM */
static char *radio_up_xpm[] = {
/* width height num_colors chars_per_pixel */
"    16    16        4            1",
/* colors */
". c Black",
"# c #555555",
"a s None c None",
"b c White",
/* pixels */
"aaaaaaaaaaaaaaaa",
"aaaaaa####aaaaaa",
"aaaa##....##aaaa",
"aaa#..aaaaaa#aaa",
"aa#.#aaaaaaaaaaa",
"aa#.aaaaaaaaaaaa",
"a#.aaaaaaaaaaaba",
"a#.aaaaaaaaaaaba",
"a#.aaaaaaaaaaaba",
"a#.aaaaaaaaaaaba",
"a#.aaaaaaaaaaaba",
"aa##aaaaaaaaabaa",
"aa#aaaaaaaaaabaa",
"aaa#aaaaaaaabaaa",
"aaaaabaaaabbaaaa",
"aaaaaabbbbaaaaaa",
"aaaaaaaaaaaaaaaa",
};
