/* XPM */
static char *reld-up[] = {
/* width height num_colors chars_per_pixel */
"    32    30       18            1",
/* colors */
". c #000000",
"# c #252525",
"a c #330099",
"b c #4c4c4c",
"c c #555555",
"d c #6666cc",
"e c #737373",
"f c #777777",
"g c #888888",
"h c #999999",
"i c #9999ff",
"j c #aaaaaa",
"k c #b2b2b2 s backgroundToolBarColor",
"l c #bbbbbb",
"m c #cccccc",
"n c #e1e1e1",
"o c #eeeeee",
"p c #ffffff",
/* pixels */
"kkkkkkkkkkkkkkkkkkkkkkkkkkkkkkkk",
"kkkkkkkkkkkkjfdadfjkkkkkkkkkkkkk",
"kkkkkkkkkkkgadfjfdagkkkkkkkkkkkk",
"kkkkkkkkkkdajoommmjadkkkkkkkkkkk",
"kkkkkkkkkgapofdadfmmagkkkkkkkkkk",
"kkkkkkkkjajofajjjadmjajkkkkkkkkk",
"kkkkkkkkfdpfajjjjjafmafkkkkkkkkk",
"kkkkkkkkdfpafjkkadjommgdakkkkkkk",
"kkkkkkkkajpajkkkkadmmmdajjkkkkkk",
"kkkkkkkkajpafkkkkkadmdajjkkkkkkk",
"kkkkkkkkdfpdfjkkkkkadajjkkkkkkkk",
"kkkkkkkkfdmmafjkkkkkdjjkkkkkkkkk",
"kkkkkkkkjajmmaffkkjaaajkkkkkkkkk",
"kkkkkkkkjgammmjdakamogakkkkkkkkk",
"kkkkkkkkkjdajmmadkaoomajkkkkkkkk",
"kkkkkkkkkkjgadfajkagmgagkkkkkkkk",
"kkkkkkkkkkkjjfdjjkjaaaggkkkkkkkk",
"kkkkkkkkkkkkjjjjkkkjgggjkkkkkkkk",
"kkkkkkkkkkkkkkkkkkkkkkkkkkkkkkkk",
"kkkkkkkkkkkkkkkkkkkkkkkkkkkkkkkk",
"kkkkkkkkkkkkkkkkkkkkkkkkkkkkkkkk",
"kk....kkkkkkk.kkkkkkkkkkkkkk.kkk",
"kk.kkk.kkkkkk.kkkkkkkkkkkkkk.kkk",
"kk.kkk.kk..kk.kk..kkk..kkk...kkk",
"kk....kk.kk.k.k.kk.k.kk.k.kk.kkk",
"kk.kkk.k....k.k.kk.kk...k.kk.kkk",
"kk.kkk.k.kkkk.k.kk.k.kk.k.kk.kkk",
"kk.kkk.kk...k.kk..kkk..k.k...kkk",
"kkkkkkkkkkkkkkkkkkkkkkkkkkkkkkkk",
"kkkkkkkkkkkkkkkkkkkkkkkkkkkkkkkk"
};
