#define noname_width 32
#define noname_height 30
static char noname_bits[] = {
 0x00,0x00,0x00,0x00,0x00,0xe0,0x03,0x00,0x00,0x00,0x00,0x00,0x00,0x0c,0x18,
 0x00,0x00,0x00,0x00,0x00,0x00,0x32,0x26,0x00,0x00,0x00,0x00,0x00,0x00,0x1b,
 0x83,0x01,0x00,0x00,0x00,0x00,0x00,0x19,0x6c,0x00,0x00,0x00,0x00,0x00,0x00,
 0x33,0x10,0x00,0x00,0x00,0x00,0x00,0x00,0x84,0x45,0x00,0x00,0x00,0x00,0x00,
 0x00,0xf0,0x44,0x00,0x00,0x00,0x00,0x00,0x00,0x00,0x00,0x00,0x00,0x00,0x00,
 0x00,0x00,0x00,0x00,0x00,0x00,0x00,0x00,0x00,0x3c,0x20,0x00,0x10,0x00,0x00,
 0x00,0x00,0x44,0x26,0x63,0x1c,0x00,0x00,0x00,0x00,0x44,0xaf,0xe4,0x12,0x00,
 0x00,0x00,0x00,0x44,0x2e,0x63,0x1d,0x00,0x00,0x00,0x00,0x00,0x00,0x00,0x00};
