#define symlink_width 20
#define symlink_height 23
static char symlink_bits[] = {
   0x00, 0x00, 0x00, 0x00, 0x00, 0x00, 0x00, 0x00, 0x00, 0x00, 0x00, 0x00,
   0xff, 0xff, 0x07, 0x01, 0x00, 0x0c, 0x01, 0x00, 0x0c, 0x01, 0x00, 0x0c,
   0x01, 0x00, 0x0c, 0x01, 0x00, 0x0c, 0x0f, 0x3f, 0x0e, 0x91, 0x40, 0x0e,
   0x67, 0x9e, 0x0d, 0xfd, 0x63, 0x0e, 0x03, 0x14, 0x0d, 0x03, 0x14, 0x0d,
   0xfd, 0x63, 0x0e, 0x67, 0x9e, 0x0f, 0x91, 0x40, 0x0e, 0x0f, 0x3f, 0x0c,
   0x01, 0x00, 0x0c, 0xff, 0xff, 0x0f, 0xfe, 0xff, 0x0f};
