#define telephone.bm_width 32
#define telephone.bm_height 32
static char telephone.bm_bits[] = {
   0x00, 0x00, 0x00, 0x00, 0x00, 0x00, 0x00, 0x00, 0x80, 0x01, 0x00, 0x00,
   0x40, 0x02, 0x00, 0x00, 0x20, 0x02, 0x00, 0x00, 0x20, 0x04, 0x00, 0x00,
   0x10, 0x04, 0x00, 0x00, 0x10, 0x08, 0x00, 0x00, 0x08, 0x08, 0x00, 0x00,
   0x08, 0x10, 0x00, 0x00, 0x08, 0x10, 0x00, 0x00, 0x10, 0x0e, 0x00, 0x00,
   0x10, 0x01, 0x00, 0x00, 0x20, 0x02, 0x00, 0x00, 0x20, 0x04, 0x00, 0x00,
   0x40, 0x08, 0x00, 0x00, 0x40, 0x10, 0x00, 0x00, 0x80, 0x20, 0x00, 0x00,
   0x00, 0x41, 0x00, 0x00, 0x00, 0x82, 0x60, 0x00, 0x00, 0x04, 0x91, 0x01,
   0x00, 0x08, 0x12, 0x06, 0x00, 0x10, 0x14, 0x18, 0x00, 0x20, 0x08, 0x20,
   0x00, 0x40, 0x00, 0x20, 0x00, 0x80, 0x01, 0x10, 0x00, 0x00, 0x06, 0x0c,
   0x00, 0x00, 0x18, 0x03, 0x00, 0x00, 0xe0, 0x00, 0x00, 0x00, 0x00, 0x00,
   0x00, 0x00, 0x00, 0x00, 0x00, 0x00, 0x00, 0x00};
