#define telnet_width 20
#define telnet_height 23
static char telnet_bits[] = {
 0x00,0x00,0x00,0x00,0x00,0x00,0xfe,0xff,0x07,0x02,0x00,0x0c,0x7a,0x37,0x0c,
 0x7a,0x37,0x0c,0x32,0x33,0x0c,0x32,0x37,0x0c,0x32,0x37,0x0c,0x32,0x33,0x0c,
 0x32,0xf7,0x0c,0x32,0xf7,0x0c,0x02,0x00,0x0c,0xfe,0xff,0x0f,0xfc,0xff,0x0f,
 0x00,0x00,0x00,0x04,0x00,0x02,0xfe,0xff,0x07,0xff,0xff,0x0f,0xfe,0xff,0x07,
 0x04,0x00,0x02,0x00,0x00,0x00,0x00,0x00,0x00};
