#define text_width 20
#define text_height 23
static char text_bits[] = {
 0x00,0x00,0x00,0x00,0x00,0x00,0xff,0x3f,0x00,0x01,0x60,0x00,0x01,0xa0,0x00,
 0xf9,0x27,0x01,0x01,0x20,0x02,0xf1,0xe7,0x07,0x01,0xc0,0x0f,0xf9,0x07,0x0c,
 0x01,0x00,0x0c,0xe1,0x07,0x0c,0x01,0x00,0x0c,0xf9,0x07,0x0c,0x01,0x00,0x0c,
 0xe1,0x07,0x0c,0x01,0x00,0x0c,0xf9,0x07,0x0c,0x01,0x00,0x0c,0xff,0xff,0x0f,
 0xfe,0xff,0x0f,0x00,0x00,0x00,0x00,0x00,0x00};
