#define tn3270_width 20
#define tn3270_height 23
static char tn3270_bits[] = {
   0x00, 0x00, 0x00, 0x00, 0x00, 0x00, 0xfe, 0xff, 0x07, 0x02, 0x00, 0x0c,
   0xfa, 0x86, 0x0d, 0xfa, 0x8e, 0x0d, 0x22, 0x9e, 0x0d, 0x22, 0xb6, 0x0d,
   0x22, 0xe6, 0x0d, 0x22, 0xc6, 0x0d, 0x22, 0x86, 0x0d, 0x22, 0x86, 0x0d,
   0x02, 0x00, 0x0c, 0xfe, 0xff, 0x0f, 0xfc, 0xff, 0x0f, 0x00, 0x00, 0x00,
   0x04, 0x00, 0x02, 0xfe, 0xff, 0x07, 0xff, 0xff, 0x0f, 0xfe, 0xff, 0x07,
   0x04, 0x00, 0x02, 0x00, 0x00, 0x00, 0x00, 0x00, 0x00};
