/* XPM */
static char * toggle_dn_xpm[] = {
"16 16 3 1",
"     c white",
".    c black",
"X    s None  c None",
"               .",
" XXXXXXXXXXXXXX.",
" XXXXXXXXXXXXXX.",
" XXXXXXXXX .XXX.",
" XXXXXXXX XX.XX.",
" XXXXXXX XX.XXX.",
" XX .XX XX.XXXX.",
" XX X. XX.XXXXX.",
" XX XXXX.XXXXXX.",
" XX XXX.XXXXXXX.",
" XX XX.XXXXXXXX.",
" XX X.XXXXXXXXX.",
" XXX.XXXXXXXXXX.",
" XXXXXXXXXXXXXX.",
" XXXXXXXXXXXXXX.",
"................",
};
