/* XPM */
static char * toggle_up_xpm[] = {
"16 16 3 1",
"     c white",
".    c black",
"X    s None  c None",
"               .",
" XXXXXXXXXXXXXX.",
" XXXXXXXXXXXXXX.",
" XXXXXXXXXXXXXX.",
" XXXXXXXXXXXXXX.",
" XXXXXXXXXXXXXX.",
" XXXXXXXXXXXXXX.",
" XXXXXXXXXXXXXX.",
" XXXXXXXXXXXXXX.",
" XXXXXXXXXXXXXX.",
" XXXXXXXXXXXXXX.",
" XXXXXXXXXXXXXX.",
" XXXXXXXXXXXXXX.",
" XXXXXXXXXXXXXX.",
" XXXXXXXXXXXXXX.",
"................",
};
