/* XPM */
static char * amstex_xpm[] = {
"24 24 180 2",
"  	c None s backgroundToolBarColor",
". 	c #3E9543",
"+ 	c #409644",
"@ 	c #3D9D45",
"# 	c #3F9B42",
"$ 	c #4C2A1F",
"% 	c #4E3124",
"& 	c #727E51",
"* 	c #598A4E",
"= 	c #5B6647",
"- 	c #88624F",
"; 	c #89383B",
"> 	c #8B343B",
", 	c #6D5852",
"' 	c #506D48",
") 	c #4C843E",
"! 	c #648752",
"~ 	c #B8A789",
"{ 	c #80624D",
"] 	c #7D6951",
"^ 	c #FFFFC1",
"/ 	c #94A676",
"( 	c #8F8668",
"_ 	c #977567",
": 	c #A86660",
"< 	c #986C6A",
"[ 	c #758660",
"} 	c #708C60",
"| 	c #6A6C4E",
"1 	c #C3C599",
"2 	c #988167",
"3 	c #5A3125",
"4 	c #561E1C",
"5 	c #958066",
"6 	c #BEA384",
"7 	c #68372B",
"8 	c #672124",
"9 	c #5B392F",
"0 	c #94917B",
"a 	c #AFAC91",
"b 	c #B8B39C",
"c 	c #BDBCA0",
"d 	c #B39073",
"e 	c #582522",
"f 	c #712E2B",
"g 	c #6F292C",
"h 	c #83826F",
"i 	c #908F88",
"j 	c #F8FFFD",
"k 	c #686C8D",
"l 	c #D7DBB8",
"m 	c #716D76",
"n 	c #7B7B92",
"o 	c #D5D5B3",
"p 	c #DBBD9A",
"q 	c #81463B",
"r 	c #691A19",
"s 	c #838270",
"t 	c #888791",
"u 	c #6462D0",
"v 	c #2C2B87",
"w 	c #DAD9C7",
"x 	c #868394",
"y 	c #716DDC",
"z 	c #2F2C94",
"A 	c #C7C6B7",
"B 	c #D2AF8D",
"C 	c #84473C",
"D 	c #6D1E1F",
"E 	c #6E262C",
"F 	c #BDBDAB",
"G 	c #878593",
"H 	c #909095",
"I 	c #C0BEAF",
"J 	c #A09EAD",
"K 	c #A6A5A9",
"L 	c #C19978",
"M 	c #7C3D33",
"N 	c #641C1F",
"O 	c #662633",
"P 	c #DBDCB8",
"Q 	c #B4B492",
"R 	c #E5D9AA",
"S 	c #9F755A",
"T 	c #50231F",
"U 	c #672424",
"V 	c #8E3B4B",
"W 	c #E4E3BC",
"X 	c #A5A28D",
"Y 	c #D2D1B5",
"Z 	c #E7E5C1",
"` 	c #E3DFC0",
" .	c #E4CCA2",
"..	c #894E3A",
"+.	c #461715",
"@.	c #632524",
"#.	c #95404E",
"$.	c #777776",
"%.	c #C0B396",
"&.	c #AAAB90",
"*.	c #463F31",
"=.	c #665E46",
"-.	c #7C7968",
";.	c #B3AF92",
">.	c #D4BD97",
",.	c #804B37",
"'.	c #461F19",
").	c #42201F",
"!.	c #5A4F43",
"~.	c #504334",
"{.	c #979183",
"].	c #DCD8B5",
"^.	c #D0BC9D",
"/.	c #C8A487",
"(.	c #82493F",
"_.	c #3F1310",
":.	c #401613",
"<.	c #664B46",
"[.	c #DCD9BC",
"}.	c #B8B59D",
"|.	c #8C8977",
"1.	c #E9E7C0",
"2.	c #A2897B",
"3.	c #AE8872",
"4.	c #CFB89A",
"5.	c #A6715F",
"6.	c #4B1D19",
"7.	c #68272E",
"8.	c #6E2933",
"9.	c #453E37",
"0.	c #767361",
"a.	c #7F8170",
"b.	c #7B7B6C",
"c.	c #8E897E",
"d.	c #827F6E",
"e.	c #83876F",
"f.	c #847E70",
"g.	c #9C7964",
"h.	c #662F2A",
"i.	c #5D2D2E",
"j.	c #783C3F",
"k.	c #87826E",
"l.	c #B3B99A",
"m.	c #D1D1AB",
"n.	c #DFDDB9",
"o.	c #C3B191",
"p.	c #826453",
"q.	c #6D2B2A",
"r.	c #884144",
"s.	c #772B2F",
"t.	c #702F34",
"u.	c #AEA28C",
"v.	c #C1C3A2",
"w.	c #AEA07E",
"x.	c #C8C09F",
"y.	c #C4C6A3",
"z.	c #B6886B",
"A.	c #774237",
"B.	c #7E3E3D",
"C.	c #854748",
"D.	c #78373B",
"E.	c #6A2932",
"F.	c #5F343C",
"G.	c #7C474A",
"H.	c #815655",
"I.	c #7F534F",
"J.	c #8A5C54",
"K.	c #74504B",
"L.	c #8C615F",
"M.	c #7E2C29",
"N.	c #8C4240",
"O.	c #7C322F",
"P.	c #703634",
"Q.	c #6D1B27",
"R.	c #975F59",
"S.	c #631D22",
"T.	c #65101D",
"U.	c #000000",
"V.	c #868686",
"W.	c #AFAEAE",
"                  .         + @ #   $           ",
"            % & * = - ; > , ' ) ! ~ {           ",
"            ] ^ / ( _ : < [ } | 1 2 3 4         ",
"              5 ^ ^ ^ ^ ^ ^ ^ ^ ^ 6 7 8         ",
"              9 ^ 0 a ^ b 0 c ^ ^ d e f g       ",
"              h i j k l m j n o ^ p q r         ",
"              s t u v w x y z A ^ B C D E       ",
"              ] F G H ^ I J K ^ ^ L M N O       ",
"            ] ^ P Q ^ ^ ^ ^ ^ ^ R S T U V       ",
"          ] ^ W X Y Z ` ^ ^ ^ ^  ...+.@.#.      ",
"      $.$.%.%.&.*.=.-.;.%.%.%.^ >.,.'.).        ",
"        %.%.^ ^ !.~.{.].^ ^ ^ ^./.(._.:.        ",
"      $.$.<.[.^ }.|.1.^ 2.3.4.^ 5.6.7.8.        ",
"          9.0.a.b.c.d.e.f.^ ^ g.h.i.j.          ",
"          k.^ l.^ ^ m.n.^ o.p.q.r.s.t.          ",
"            u.v.%.w.x.y.z.A.B.C.D.E.F.          ",
"            G.H.I.J.K.L.M.N.O.P.                ",
"              Q.R.    S.  T.                    ",
"                                                ",
"            U.U.                V.U.U.W.        ",
"          U.  U.    U.U.V.U.V.  U.              ",
"        U.    U.    U.  U.  U.  V.U.U.V.        ",
"        U.U.U.U.    U.  U.  U.        U.        ",
"      U.V.    U.    U.  U.  U.  U.U.U.V.        "};
