/* XPM */
static char * error22_xpm[] = {
"24 24 8 1",
" 	c None s backgroundToolBarColor",
".	c #847000",
"+	c #000000",
"@	c #F0C900",
"#	c #AB9100",
"$	c #887821",
"%	c #AA9629",
"&	c #51470D",
"                        ",
"                        ",
"          .++.          ",
"         +@@@@+         ",
"        #.@@@@.#        ",
"        +@@@@@@+        ",
"       #.@@@@@@.#       ",
"       +@@@++@@@+       ",
"      #.@@@++@@@.#      ",
"      +@@@@++@@@@+      ",
"     #.@@@@++@@@@.#     ",
"     +@@@@@++@@@@@+     ",
"    #.@@@@@++@@@@@.#    ",
"    +@@@@@@$$@@@@@@+    ",
"   #.@@@@@@%%@@@@@@.#   ",
"   +@@@@@@@@@@@@@@@@+   ",
"  .#@@@@@@@++@@@@@@@#.  ",
"  &@@@@@@@@++@@@@@@@@&  ",
"  &@@@@@@@@@@@@@@@@@@&  ",
"   +@@@@@@@@@@@@@@@@+   ",
"    .++++++++++++++.    ",
"                        ",
"                        ",
"                        "};
