/* XPM */
static char * exectex40_xpm[] = {
"24 24 176 2",
"  	c None s backgroundToolBarColor",
". 	c #3E9543",
"+ 	c #409644",
"@ 	c #3D9D45",
"# 	c #3F9B42",
"$ 	c #4C2A1F",
"% 	c #4E3124",
"& 	c #727E51",
"* 	c #598A4E",
"= 	c #5B6647",
"- 	c #88624F",
"; 	c #89383B",
"> 	c #8B343B",
", 	c #6D5852",
"' 	c #506D48",
") 	c #4C843E",
"! 	c #648752",
"~ 	c #B8A789",
"{ 	c #80624D",
"] 	c #7D6951",
"^ 	c #FFFFC1",
"/ 	c #94A676",
"( 	c #8F8668",
"_ 	c #977567",
": 	c #A86660",
"< 	c #986C6A",
"[ 	c #758660",
"} 	c #708C60",
"| 	c #6A6C4E",
"1 	c #C3C599",
"2 	c #988167",
"3 	c #5A3125",
"4 	c #958066",
"5 	c #BEA384",
"6 	c #68372B",
"7 	c #672124",
"8 	c #5B392F",
"9 	c #94917B",
"0 	c #AFAC91",
"a 	c #B8B39C",
"b 	c #BDBCA0",
"c 	c #B39073",
"d 	c #582522",
"e 	c #712E2B",
"f 	c #83826F",
"g 	c #908F88",
"h 	c #F8FFFD",
"i 	c #686C8D",
"j 	c #D7DBB8",
"k 	c #716D76",
"l 	c #7B7B92",
"m 	c #D5D5B3",
"n 	c #DBBD9A",
"o 	c #81463B",
"p 	c #691A19",
"q 	c #838270",
"r 	c #888791",
"s 	c #6462D0",
"t 	c #2C2B87",
"u 	c #DAD9C7",
"v 	c #868394",
"w 	c #716DDC",
"x 	c #2F2C94",
"y 	c #C7C6B7",
"z 	c #D2AF8D",
"A 	c #84473C",
"B 	c #6D1E1F",
"C 	c #975F59",
"D 	c #BDBDAB",
"E 	c #878593",
"F 	c #909095",
"G 	c #C0BEAF",
"H 	c #A09EAD",
"I 	c #A6A5A9",
"J 	c #C19978",
"K 	c #7C3D33",
"L 	c #641C1F",
"M 	c #DBDCB8",
"N 	c #B4B492",
"O 	c #E5D9AA",
"P 	c #9F755A",
"Q 	c #50231F",
"R 	c #672424",
"S 	c #E4E3BC",
"T 	c #A5A28D",
"U 	c #D2D1B5",
"V 	c #E7E5C1",
"W 	c #E3DFC0",
"X 	c #E4CCA2",
"Y 	c #894E3A",
"Z 	c #461715",
"` 	c #632524",
" .	c #979183",
"..	c #665E46",
"+.	c #C0B396",
"@.	c #AAAB90",
"#.	c #463F31",
"$.	c #7C7968",
"%.	c #B3AF92",
"&.	c #D4BD97",
"*.	c #804B37",
"=.	c #461F19",
"-.	c #42201F",
";.	c #5A4F43",
">.	c #504334",
",.	c #DCD8B5",
"'.	c #D0BC9D",
").	c #C8A487",
"!.	c #82493F",
"~.	c #3F1310",
"{.	c #401613",
"].	c #664B46",
"^.	c #DCD9BC",
"/.	c #B8B59D",
"(.	c #8C8977",
"_.	c #E9E7C0",
":.	c #A2897B",
"<.	c #AE8872",
"[.	c #CFB89A",
"}.	c #A6715F",
"|.	c #4B1D19",
"1.	c #68272E",
"2.	c #767361",
"3.	c #7F8170",
"4.	c #7B7B6C",
"5.	c #8E897E",
"6.	c #827F6E",
"7.	c #83876F",
"8.	c #847E70",
"9.	c #9C7964",
"0.	c #662F2A",
"a.	c #5D2D2E",
"b.	c #783C3F",
"c.	c #87826E",
"d.	c #B3B99A",
"e.	c #D1D1AB",
"f.	c #DFDDB9",
"g.	c #C3B191",
"h.	c #826453",
"i.	c #6D2B2A",
"j.	c #884144",
"k.	c #772B2F",
"l.	c #3A3A3A",
"m.	c #AEA28C",
"n.	c #C1C3A2",
"o.	c #AEA07E",
"p.	c #C8C09F",
"q.	c #C4C6A3",
"r.	c #B6886B",
"s.	c #774237",
"t.	c #7E3E3D",
"u.	c #854748",
"v.	c #78373B",
"w.	c #000000",
"x.	c #65635C",
"y.	c #9F9D96",
"z.	c #7C474A",
"A.	c #815655",
"B.	c #7F534F",
"C.	c #8A5C54",
"D.	c #74504B",
"E.	c #8C615F",
"F.	c #7E2C29",
"G.	c #8C4240",
"H.	c #7C322F",
"I.	c #703634",
"J.	c #807D74",
"K.	c #3C3C3C",
"L.	c #6D1B27",
"M.	c #631D22",
"N.	c #65101D",
"O.	c #76746B",
"P.	c #5D5C55",
"Q.	c #6D6B63",
"R.	c #B3B3B1",
"S.	c #8C8B89",
"            .         + @ #   $                 ",
"      % & * = - ; > , ' ) ! ~ {                 ",
"      ] ^ / ( _ : < [ } | 1 2 3                 ",
"        4 ^ ^ ^ ^ ^ ^ ^ ^ ^ 5 6 7               ",
"        8 ^ 9 0 ^ a 9 b ^ ^ c d e               ",
"        f g h i j k h l m ^ n o p               ",
"        q r s t u v w x y ^ z A B C             ",
"        ] D E F ^ G H I ^ ^ J K L               ",
"      ] ^ M N ^ ^ ^ ^ ^ ^ O P Q R C             ",
"    ] ^ S T U V W ^ ^ ^ ^ X Y Z `               ",
" ...+.+.@.#...$.%.+.+.+.^ &.*.=.-.              ",
"  +.+.^ ^ ;.>. .,.^ ^ ^ '.).!.~.{.              ",
" ...].^.^ /.(._.^ :.<.[.^ }.|.1.                ",
"    2.2.3.4.5.6.7.8.^ ^ 9.0.a.b.                ",
"    c.^ d.^ ^ e.f.^ g.h.i.j.k.      l.l.        ",
"      m.n.+.o.p.q.r.s.t.u.v.  w.x.w.y.y.w.x.w.  ",
"      z.A.B.C.D.E.F.G.H.I.    x.y.y.y.J.J.J.K.  ",
"        L.C     M.  N.        w.y.y.O.J.P.Q.w.  ",
"                            l.y.y.O.w.w.R.x.x.l.",
"                            l.y.J.J.w.S.R.x.K.l.",
"                              w.J.P.R.R.J.K.w.  ",
"                              x.J.Q.x.x.K.K.K.  ",
"                              w.K.w.x.K.w.K.w.  ",
"                                    l.l.        "};
