/* XPM */
static char * execbibtex8_xpm[] = {
"24 24 100 2",
"  	c None s backgroundToolBarColor",
". 	c #1F1D12",
"+ 	c #222017",
"@ 	c #211F15",
"# 	c #211F14",
"$ 	c #0C0B07",
"% 	c #5E5737",
"& 	c #B7AB72",
"* 	c #BFB480",
"= 	c #BAAF77",
"- 	c #B9AD74",
"; 	c #9A9061",
"> 	c #545144",
", 	c #AFA98C",
"' 	c #776F4F",
") 	c #C0B684",
"! 	c #625C3D",
"~ 	c #767675",
"{ 	c #A79D6F",
"] 	c #BEB37E",
"^ 	c #93895C",
"/ 	c #59574E",
"( 	c #A3A3A2",
"_ 	c #807A59",
": 	c #BCB17E",
"< 	c #B9AE75",
"[ 	c #B8AC73",
"} 	c #7E7650",
"| 	c #5B5B5B",
"1 	c #ACACAA",
"2 	c #202120",
"3 	c #60593A",
"4 	c #BAAE76",
"5 	c #A39966",
"6 	c #363635",
"7 	c #B4B4B3",
"8 	c #82857F",
"9 	c #171816",
"0 	c #8A825C",
"a 	c #B9AD75",
"b 	c #6D6748",
"c 	c #6A6A6A",
"d 	c #A9AAA6",
"e 	c #363735",
"f 	c #95948C",
"g 	c #A39C82",
"h 	c #7A7356",
"i 	c #BBB079",
"j 	c #BBAF78",
"k 	c #20201C",
"l 	c #B3B3B2",
"m 	c #767774",
"n 	c #20211F",
"o 	c #1A1112",
"p 	c #5D413D",
"q 	c #555540",
"r 	c #7C7A58",
"s 	c #4D4830",
"t 	c #8B8A89",
"u 	c #ADADAB",
"v 	c #4F514E",
"w 	c #1E1616",
"x 	c #BA9797",
"y 	c #DCD6D3",
"z 	c #CDCDCA",
"A 	c #575651",
"B 	c #1B1A19",
"C 	c #ABABA9",
"D 	c #777775",
"E 	c #080808",
"F 	c #1B1212",
"G 	c #846666",
"H 	c #A5A09E",
"I 	c #D4D2C6",
"J 	c #E7E6DF",
"K 	c #F1F0EC",
"L 	c #A9AAA8",
"M 	c #4F514D",
"N 	c #585442",
"O 	c #6D6D66",
"P 	c #DEDBCA",
"Q 	c #EAE9E4",
"R 	c #BEC0B9",
"S 	c #878A84",
"T 	c #000000",
"U 	c #47453A",
"V 	c #50504D",
"W 	c #999474",
"X 	c #363731",
"Y 	c #020201",
"Z 	c #3A3A3A",
"` 	c #65635C",
" .	c #9F9D96",
"..	c #807D74",
"+.	c #3C3C3C",
"@.	c #76746B",
"#.	c #5D5C55",
"$.	c #6D6B63",
"%.	c #B3B3B1",
"&.	c #8C8B89",
"                                                ",
"            . + @ # # # # $                     ",
"          % & * = - - - ; >                     ",
"        , ' ) = - - - - ! ~                     ",
"        % { ] - - - - ^ / (                     ",
"      , _ : < - - - [ } | 1 2                   ",
"      3 ] 4 - - - - 5 6 7 8 9                   ",
"    % 0 ] a - - - - b c d e f                   ",
"  g h i j - - - - - k l m n                     ",
"  o p q r ; 5 - - s t u v f                     ",
"  w x y z u ~ A q B C D E                       ",
"  F G H I J K K K z L M f                       ",
"    v M N O f P Q R S T                         ",
"          ( D U V W X f                         ",
"                ( v Y               Z Z         ",
"                              T ` T  . .T ` T   ",
"                              `  . . .......+.  ",
"                              T  . .@...#.$.T   ",
"                            Z  . .@.T T %.` ` Z ",
"                            Z  .....T &.%.` +.Z ",
"                              T ..#.%.%...+.T   ",
"                              ` ..$.` ` +.+.+.  ",
"                              T +.T ` +.T +.T   ",
"                                    Z Z         "};
