/* XPM */
static char * execviewps12_xpm[] = {
"24 24 15 1",
" 	c None s backgroundToolBarColor",
".	c #0037C4",
"+	c #6C84B7",
"@	c #000000",
"#	c #FFFFFF",
"$	c #3A3A3A",
"%	c #65635C",
"&	c #9F9D96",
"*	c #807D74",
"=	c #3C3C3C",
"-	c #76746B",
";	c #5D5C55",
">	c #6D6B63",
",	c #B3B3B1",
"'	c #8C8B89",
"             ...+ +..+  ",
"             .  . .  .  ",
"             .  . .     ",
"             ...+ +..+  ",
"             .       .  ",
"             .    .  .  ",
"     @@      .    +..+  ",
"    @  @                ",
"   @   @                ",
"  @   @      @@         ",
" @@         @  @        ",
"@# @       @   @        ",
"@## @  @@ @   @         ",
"@## @@@# @@             ",
" @  @ @## @       $$    ",
"  @@  @## @    @%@&&@%@ ",
"       @  @    %&&&***= ",
"        @@     @&&-*;>@ ",
"              $&&-@@,%%$",
"              $&**@',%=$",
"               @*;,,*=@ ",
"               %*>%%=== ",
"               @=@%=@=@ ",
"                  $$    "};
