/* XPM */
static char * exec6_xpm[] = {
"24 24 41 1",
" 	c None s backgroundToolBarColor",
".	c #9F9D96",
"+	c #3A3A3A",
"@	c #B3B3B1",
"#	c #000000",
"$	c #807D74",
"%	c #3C3C3C",
"&	c #76746B",
"*	c #5D5C55",
"=	c #6D6B63",
"-	c #65635C",
";	c #8C8B89",
">	c #E4E3E1",
",	c #E2E2E2",
"'	c #484641",
")	c #888781",
"!	c #B0AFAD",
"~	c #A8A7A1",
"{	c #908E86",
"]	c #97958E",
"^	c #595854",
"/	c #605E57",
"(	c #898883",
"_	c #464542",
":	c #4A4947",
"<	c #43423E",
"[	c #E2E2E1",
"}	c #B6B5AF",
"|	c #494847",
"1	c #434242",
"2	c #464644",
"3	c #E6E6E4",
"4	c #484846",
"5	c #DFDEDC",
"6	c #B0AFA9",
"7	c #D5D4D1",
"8	c #93918B",
"9	c #D6D5D2",
"0	c #ABA9A3",
"a	c #494943",
"b	c #464540",
"                        ",
"    . ++ @              ",
"   #@#..#.#             ",
"  .@...$$$%.            ",
"   #..&$*=#             ",
"  +..&##@--+            ",
"  +.$$#;@-%+            ",
"   #$*@@$%#             ",
"  @.$=--%%%.            ",
"   #%#-%#%#             ",
"    . ++ .   %%%        ",
"          %% %>% %%     ",
"         %,@%'.'%)%%    ",
"         %!~...{]$'%    ",
"          %..^/($&%     ",
"        %%'./_:<.='%%   ",
"        %[}.^|123$-/%   ",
"        %%'.(<4;5-'%%   ",
"          %6$}378-%%    ",
"         %90.$$&&*'%    ",
"         %%^%'&'%a%%    ",
"          %% %b%*%%     ",
"             %%%        ",
"                        "};
