/* XPM */
static char * gv7_xpm[] = {
"24 24 131 2",
"  	c None s backgroundToolBarColor",
". 	c #9F9F9F",
"+ 	c #2F2F2F",
"@ 	c #373737",
"# 	c #323232",
"$ 	c #303030",
"% 	c #525252",
"& 	c #ECECEC",
"* 	c #FFFFFF",
"= 	c #F4F4F4",
"- 	c #BE5858",
"; 	c #FD6F6F",
"> 	c #FF7070",
", 	c #FF9898",
"' 	c #FFE1E1",
") 	c #FE7070",
"! 	c #C96363",
"~ 	c #FF6B6B",
"{ 	c #DD6666",
"] 	c #FDCFCF",
"^ 	c #FFD1D1",
"/ 	c #FF8888",
"( 	c #FFCACA",
"_ 	c #F37C7C",
": 	c #F56767",
"< 	c #DA6363",
"[ 	c #ECE6E6",
"} 	c #F2F2F2",
"| 	c #B6B6B6",
"1 	c #D0CBCB",
"2 	c #FD8686",
"3 	c #FE7878",
"4 	c #FE8787",
"5 	c #DCD6D6",
"6 	c #E1E1E1",
"7 	c #F5EFEF",
"8 	c #895B5B",
"9 	c #848484",
"0 	c #000000",
"a 	c #2B2B2B",
"b 	c #DAACAC",
"c 	c #F3C5C5",
"d 	c #414141",
"e 	c #4C4C4C",
"f 	c #B18383",
"g 	c #5B5B5B",
"h 	c #F86969",
"i 	c #A5A5A5",
"j 	c #3E3E3E",
"k 	c #E4B6B6",
"l 	c #F6C8C8",
"m 	c #5D5D5D",
"n 	c #6C6C6C",
"o 	c #F56666",
"p 	c #1C1C1C",
"q 	c #AFAFAF",
"r 	c #F6F6F6",
"s 	c #FA9494",
"t 	c #F67F7F",
"u 	c #FFF9F9",
"v 	c #FCFCFC",
"w 	c #EDEDED",
"x 	c #F3EDED",
"y 	c #FF7878",
"z 	c #F6F0F0",
"A 	c #F8F8F8",
"B 	c #EB7474",
"C 	c #DA7373",
"D 	c #E2E2E2",
"E 	c #A4A4A4",
"F 	c #F0F0F0",
"G 	c #D5D5D5",
"H 	c #393939",
"I 	c #161616",
"J 	c #8C8C8C",
"K 	c #F7F7F7",
"L 	c #BEBEBE",
"M 	c #191919",
"N 	c #989898",
"O 	c #BCBCBC",
"P 	c #2A2A2A",
"Q 	c #1B1B1B",
"R 	c #313131",
"S 	c #AAAAAA",
"T 	c #C7C7C7",
"U 	c #101010",
"V 	c #D3D3D3",
"W 	c #595959",
"X 	c #E4E4E4",
"Y 	c #969696",
"Z 	c #FBFBFB",
"` 	c #D1D1D1",
" .	c #717171",
"..	c #0A0A0A",
"+.	c #B7B7B7",
"@.	c #EEEEEE",
"#.	c #F9F9F9",
"$.	c #DBDBDB",
"%.	c #EBEBEB",
"&.	c #D2D2D2",
"*.	c #6E6E6E",
"=.	c #7D7D7D",
"-.	c #EAEAEA",
";.	c #A2A2A2",
">.	c #CCCCCC",
",.	c #E8E8E8",
"'.	c #4E4E4E",
").	c #ABABAB",
"!.	c #F5F5F5",
"~.	c #6B6B6B",
"{.	c #171717",
"].	c #434343",
"^.	c #CECECE",
"/.	c #4D4D4D",
"(.	c #ADADAD",
"_.	c #D0D0D0",
":.	c #9E9E9E",
"<.	c #808080",
"[.	c #FAFAFA",
"}.	c #858585",
"|.	c #A0A0A0",
"1.	c #BDBDBD",
"2.	c #838383",
"3.	c #181818",
"4.	c #8F8F8F",
"5.	c #959595",
"6.	c #D6D6D6",
"7.	c #DDDDDD",
"8.	c #C1C1C1",
"9.	c #7B7B7B",
"0.	c #8E8E8E",
"                                                ",
"                . + @ @ @ # .                   ",
"              $ % & * * * = % %                 ",
"            - ; > , ' * ' , > ) !               ",
"          ~ { ] ^ / > ( > / ^ ^ _ :             ",
"        ~ < [ } | 1 2 3 4 5 | 6 7 { ~           ",
"        ~ 8 * 9 0 a b ~ c d 0 e * f ~           ",
"    $ g h 8 * i 0 j k ~ l m 0 n * f o 0 g       ",
"  p q r s t u v w x 4 y / z w A u B C D D @     ",
"  p E F ' > / ^ ^ / > ( > / ^ ^ / ) ' * G H     ",
"  I @ J K ' , > > , ' * ' , > > , ' * L E H     ",
"      M N * * * * * * * * * * * * * O P Q       ",
"        R S * * * * * * * * * * * T a           ",
"        U S * * * * * * * * * * * V W           ",
"        U S * * * * * * * * * * * X Y U         ",
"        U S * * * * * * * * * * * Z `  ...      ",
"        R +.* * Z @.#.* * * * * $.%.* &.*.Q     ",
"      0 =.%.* * -.;.>.v v * * ,.'.).!.v >.~.{.  ",
"      ].q * * * ^./.(.A A * * _.p :.%.* %.:.p   ",
"    @ <.@.* [.r }.R |.1.1.L L 2.3.:.%.%.%.4.Q   ",
"    H 5.6.7.8.).0 0 j % % % % M 0 9.9.9. .%     ",
"    3. .0.0.m @                   % % % %       ",
"      @ @ @ @                                   ",
"                                                "};
