/* XPM */
static char *noway24[] = {
/* columns rows colors chars-per-pixel */
"24 24 9 1",
"  c red",
". c #FF0404",
"X c #FD0C0C",
"o c #F91919",
"O c #F62929",
"+ c #F34C4C",
"@ c #FF9090",
"# c #FEFEFE",
"$ c None",
/* pixels */
"$$$$$$$$+OOXXOO+$$$$$$$$",
"$$$$$$OX        XO$$$$$$",
"$$$$+X            X+$$$$",
"$$$+                +$$$",
"$$+                  +$$",
"$$X                  X$$",
"$O                    O$",
"$X                    X$",
"+                      +",
"O+@@@@@@@@@@@@@@@@@@@@+O",
"o######################o",
"X######################X",
"X######################X",
"o######################o",
"O+@@@@@@@@@@@@@@@@@@@@+O",
"+                      +",
"$X                    X$",
"$O                    O$",
"$$X                  X$$",
"$$+                  +$$",
"$$$+                +$$$",
"$$$$+X            X+$$$$",
"$$$$$$OX        XO$$$$$$",
"$$$$$$$$+OOXXOO+$$$$$$$$"
};
