/* XPM */
static char * preview16_xpm[] = {
"16 16 17 1",
" 	c None",
".	c #020202",
"+	c #1A1A16",
"@	c #636357",
"#	c #6E6E62",
"$	c #828276",
"%	c #8A8A7A",
"&	c #969686",
"*	c #A6A692",
"=	c #B2B29E",
"-	c #BABAA6",
";	c #363632",
">	c #BEBEAA",
",	c #52524A",
"'	c #CECEB2",
")	c #46463E",
"!	c #7A7A6E",
"................",
".''''''>@''''''.",
".''''''%>''''''.",
".'!..#*;,=#*'#=.",
".''.''!*>''&=@'.",
".''.''#@>''>)='.",
".'',,'#!@>'&@''.",
" .;@;''*>'')%''.",
" -$$;'''''%!>@=.",
". &$@;&'''*''>'.",
".   @,+$'''''''.",
" .  ...;;;+''''.",
" .   .   . .....",
"  .  .   .  . . ",
"  .  .   . .. . ",
"   .  ..  . .  ."};
