/* XPM */
static char * preview_cap_up_xpm[] = {
"33 33 12 1",
" 	c None",
".	c #BFBFBF s backgroundToolBarColor",
"+	c #000000 s foregroundToolBarColor",
"!	c #000000",
"@	c #FFFFFF",
"#	c #7C7C7C",
"$	c #A0A0A0",
"%	c #E5E5E5",
"&	c #BABABA",
"*	c #1D1D1D",
"=	c #424242",
"-	c #676767",
".................................",
".....!!!!!!!!!!!!!!!!!!!!!!......",
".....!@@@@@@@@@@@@@@@@@@@@!......",
".....!@@@@@@@@@#$@@@@@@@@@!......",
".....!@@@@@@@@%!&@@@@@@@@@!......",
".....!@@@@@@@@#$@@@@@@@@@@!......",
".....!@@@@@@@%*#%@%%@@@@&@!......",
".....!#!!!!=$*#-!$#!&@@#*@!......",
".....!@@&&@@#$@@%@@%=@%!$@!......",
".....!@@&&@@&-=$@@@@$$-=@@!......",
".....!@@&&@@$##&@@@@@=!&@@!......",
".....!@@&#%@#$@@&&@@@*-@@@!......",
".....!@@@*!@&!#-*@@@$!$@@@!......",
".....!@@@%%@@%#$@@@@!#-@@@!......",
".....!@%==@@@@@@@@@#*@-%@@!......",
"......!=#=@@@@@@@@%!&@%=#@!......",
"......%$$=@@@@@@@@$=@@@&=@!......",
".....#.&$#=&@@@@@@@@@@@@@@!......",
".....#...#-*$@@@@@@@@@@@@@!......",
"......#..###===*%%@@@@@@@@!......",
"......#...#...#.!!!!!!!!!!!......",
".......#..#...#..#.#..#..#.......",
".......#..#...#.##.#..#..#.......",
"........#..##..#.#..###...#......",
"........#.................#......",
"..+++............................",
"..+..+.+.+.+..+..+.+..+..+.+.+...",
"..+..+.++.+.+.+..+...+.+.+.+.+...",
"..+++..+..+++.+..+.+.+++.+.+.+...",
"..+....+..+...+.+..+.+....+.+....",
"..+....+...++..+...+..++..+.+....",
".................................",
"................................."};
