/* XPM */
static char * nwork24_xpm[] = {
"24 24 17 1",
" 	c None",
".	c #000100",
"+	c #141513",
"@	c #212320",
"#	c #313230",
"$	c #3B3D3A",
"%	c #484947",
"&	c #626461",
"*	c #8C8E8B",
"=	c #FF6467",
"-	c #B6AFAC",
";	c #FF9696",
">	c #C4C6C3",
",	c #D0D2CE",
"'	c #FFCBCA",
")	c #DDDFDC",
"!	c #FBFDFA",
"           ;;           ",
"          ;==;          ",
"          ====          ",
"         ;====;         ",
"         ==;;==         ",
"        ;==''==;        ",
"        ==;!!;==        ",
"       ;=='!!'==;       ",
"       ==;!!!!;==       ",
"      ;=='!!>,'==;      ",
"      ==;!!!.%!;==      ",
"     ;=;$#$*,)!'==;     ",
"     ==&,*..!!!!;==     ",
"    ;==#,@.$!!!!'==;    ",
"    ==;!&.&&!!!!!;==    ",
"   ;==')*&*&!!!!!'==;   ",
"   ==;!*#&>&!!!!!!;==   ",
"  ;==')$)&->-!!)&*'==;  ",
"  ==;!&-!,&!!-,%..*;==  ",
" ;==',%!!)$!!>#....-==; ",
" ==;!&>!!)@!>+.....+;== ",
";=='!-!!!!*!&%%%%%&&*==;",
"========================",
" ====================== "};
