/* XPM */
static char * nwork16_xpm[] = {
"16 16 17 1",
" 	c None",
".	c #040703",
"+	c #0E100D",
"@	c #262825",
"#	c #434542",
"$	c #4C4E4B",
"%	c #5B5D5A",
"&	c #70726F",
"*	c #868885",
"=	c #D86467",
"-	c #FF6467",
";	c #A69F9F",
">	c #FF9797",
",	c #B6B8B5",
"'	c #C7C9C6",
")	c #D5D7D4",
"!	c #FAFCF9",
"       >>       ",
"       --       ",
"      >-->      ",
"      ->>-      ",
"     >-!!->     ",
"     ->!!>-     ",
"    >-!!&*->    ",
"    -;#@;)>-    ",
"   >-#&.;!!->   ",
"   ->!+@,!!>-   ",
"  >-!&@%;!!!->  ",
"  ->)#,%,,&.;-  ",
" >-!%'!#!$..+=> ",
" ->!&!!&&..++#- ",
">->>>>>>>>>>>>->",
" >>>>>>>>>>>>>> "};
