/* XPM */
static char * nwork14_xpm[] = {
"14 14 17 1",
" 	c None",
".	c #000100",
"+	c #161816",
"@	c #222421",
"#	c #2A2C29",
"$	c #363836",
"%	c #525451",
"&	c #686A67",
"*	c #828481",
"=	c #FF6467",
"-	c #949693",
";	c #A4A6A3",
">	c #FF9797",
",	c #B8BAB7",
"'	c #D8D6D4",
")	c #FFCBCA",
"!	c #FAFDF9",
"      >>      ",
"     )==)     ",
"     >>>>     ",
"    )=))=)    ",
"    >>!!>>    ",
"   )=)!!)=)   ",
"   >>''@!>>   ",
"  )=&%#!!)=)  ",
"  >>-@$!!!>>  ",
" )=);%&!!!)=) ",
" >>!&&;,!&,>> ",
")=)*',,'@.+'=)",
">>!-!';$+++%>>",
" ============ "};
