/* XPM */
static char * nwork12_xpm[] = {
"12 12 17 1",
" 	c None",
".	c #0F110E",
"+	c #161815",
"@	c #1F211E",
"#	c #383937",
"$	c #6A6C69",
"%	c #818380",
"&	c #E46767",
"*	c #FF6467",
"=	c #959794",
"-	c #DC9897",
";	c #ADAFAC",
">	c #FF9797",
",	c #C6C8C5",
"'	c #FFCBCA",
")	c #E4E6E3",
"!	c #FBFDFA",
"     >>     ",
"    '**'    ",
"    >>>>    ",
"   '*''*'   ",
"   >>!)>>   ",
"  '*,==,*'  ",
"  >>$@=!>>  ",
" '*';#;!'*' ",
" >>!$$=!,-> ",
"'*'=)%!%.@&'",
">>!=!=;..+$>",
" ********** "};
