/* XPM */
static char * tex6_xpm[] = {
"24 24 233 2",
"  	c None s backgroundToolBarColor",
". 	c #3D9944",
"+ 	c #3E9842",
"@ 	c #3DA243",
"# 	c #3C9B47",
"$ 	c #3EA442",
"% 	c #290400",
"& 	c #304116",
"* 	c #3E8D43",
"= 	c #3F7744",
"- 	c #977C5E",
"; 	c #842835",
"> 	c #9C3635",
", 	c #94506A",
"' 	c #54764E",
") 	c #3DBA41",
"! 	c #386C34",
"~ 	c #CABC9A",
"{ 	c #C1AE8E",
"] 	c #795642",
"^ 	c #907F62",
"/ 	c #FFFFC1",
"( 	c #94AC73",
"_ 	c #664535",
": 	c #8A6A61",
"< 	c #6D302B",
"[ 	c #943A3B",
"} 	c #772437",
"| 	c #52382D",
"1 	c #664940",
"2 	c #99A578",
"3 	c #6E4835",
"4 	c #6D5642",
"5 	c #9DBA88",
"6 	c #A3B181",
"7 	c #A3A982",
"8 	c #B9968B",
"9 	c #BF8A7F",
"0 	c #CAA8A0",
"a 	c #6F9966",
"b 	c #CEE6B0",
"c 	c #3E8946",
"d 	c #808C6A",
"e 	c #947F66",
"f 	c #916B50",
"g 	c #370708",
"h 	c #5D181B",
"i 	c #664437",
"j 	c #F2DBB4",
"k 	c #621E1C",
"l 	c #782C33",
"m 	c #411712",
"n 	c #82806E",
"o 	c #868266",
"p 	c #C1BFA2",
"q 	c #C7C2A8",
"r 	c #82806A",
"s 	c #84826C",
"t 	c #E8E8C7",
"u 	c #D1B08B",
"v 	c #4A1A16",
"w 	c #5C2628",
"x 	c #7F3630",
"y 	c #6B262B",
"z 	c #82826F",
"A 	c #BBBABD",
"B 	c #F8FFFD",
"C 	c #404448",
"D 	c #48424A",
"E 	c #FFFEFF",
"F 	c #BBC0BB",
"G 	c #9C6D56",
"H 	c #5D201D",
"I 	c #712723",
"J 	c #868471",
"K 	c #A29EF2",
"L 	c #3132E4",
"M 	c #181766",
"N 	c #807E80",
"O 	c #2F29CF",
"P 	c #A46D56",
"Q 	c #6C0E12",
"R 	c #6B2731",
"S 	c #7F7F6F",
"T 	c #8E8BE8",
"U 	c #141369",
"V 	c #504D7F",
"W 	c #848081",
"X 	c #2725AA",
"Y 	c #A46F58",
"Z 	c #833A33",
"` 	c #040400",
" .	c #BFBE98",
"..	c #7F7F6C",
"+.	c #8D523D",
"@.	c #580F16",
"#.	c #66283A",
"$.	c #312B23",
"%.	c #DCDFBB",
"&.	c #E4D7A8",
"*.	c #B48566",
"=.	c #4E3025",
"-.	c #3F0810",
";.	c #9C4256",
">.	c #31302E",
",.	c #E2E0C7",
"'.	c #ACA896",
").	c #CFD1B0",
"!.	c #ECE6CB",
"~.	c #F0D9AC",
"{.	c #A26048",
"].	c #50271C",
"^.	c #3D030C",
"/.	c #392F26",
"(.	c #E4E2CB",
"_.	c #ACAA92",
":.	c #48453B",
"<.	c #878364",
"[.	c #83806D",
"}.	c #B2B496",
"|.	c #CFBD94",
"1.	c #8C5037",
"2.	c #4C2318",
"3.	c #351114",
"4.	c #522B2B",
"5.	c #B07F6B",
"6.	c #62433A",
"7.	c #A0876A",
"8.	c #BFBB96",
"9.	c #B8C2A0",
"0.	c #1E140C",
"a.	c #35210C",
"b.	c #2B2106",
"c.	c #A09A96",
"d.	c #CCBF9A",
"e.	c #AA8368",
"f.	c #B4846A",
"g.	c #AE826A",
"h.	c #D2B89A",
"i.	c #EAD0AA",
"j.	c #9E6852",
"k.	c #542D25",
"l.	c #441C16",
"m.	c #312019",
"n.	c #5F2D31",
"o.	c #604835",
"p.	c #A29A8F",
"q.	c #3D3123",
"r.	c #A09698",
"s.	c #BFBBA2",
"t.	c #C7BB9C",
"u.	c #B38A71",
"v.	c #A05250",
"w.	c #1A0400",
"x.	c #520308",
"y.	c #350010",
"z.	c #584C44",
"A.	c #444637",
"B.	c #7F625E",
"C.	c #834A3F",
"D.	c #AA7F6D",
"E.	c #D2BC9E",
"F.	c #E6E4BD",
"G.	c #A66456",
"H.	c #2B0702",
"I.	c #602A2B",
"J.	c #5A2229",
"K.	c #3C3831",
"L.	c #6F6B58",
"M.	c #797B6D",
"N.	c #484A3E",
"O.	c #ACA7A2",
"P.	c #4C463E",
"Q.	c #807E71",
"R.	c #686F5A",
"S.	c #605F56",
"T.	c #E0D9BC",
"U.	c #FDFACB",
"V.	c #C5BD9C",
"W.	c #8B5E4E",
"X.	c #561F1A",
"Y.	c #582E2F",
"Z.	c #6F3A3A",
"`.	c #814247",
" +	c #94947D",
".+	c #858B75",
"++	c #9C9E81",
"@+	c #E0DBBB",
"#+	c #CFC19C",
"$+	c #483325",
"%+	c #661718",
"&+	c #995657",
"*+	c #732428",
"=+	c #7B2C2E",
"-+	c #655347",
";+	c #DACDA6",
">+	c #F6E5B8",
",+	c #73503A",
"'+	c #643433",
")+	c #894043",
"!+	c #9C5156",
"~+	c #681B23",
"{+	c #873E43",
"]+	c #5D2E34",
"^+	c #623C46",
"/+	c #775A50",
"(+	c #858271",
"_+	c #987B71",
":+	c #524024",
"<+	c #7D6C56",
"[+	c #8A806F",
"}+	c #7B826D",
"|+	c #853626",
"1+	c #894A3C",
"2+	c #75292C",
"3+	c #93594C",
"4+	c #623739",
"5+	c #8B5A56",
"6+	c #4E0E1C",
"7+	c #7E3F47",
"8+	c #804047",
"9+	c #6E3A3D",
"0+	c #9F6662",
"a+	c #A05A62",
"b+	c #4C2626",
"c+	c #A45862",
"d+	c #731C21",
"e+	c #964648",
"f+	c #722020",
"g+	c #620818",
"h+	c #A0675E",
"i+	c #561014",
"j+	c #5A0414",
"                                                ",
"              . +         @ + # $   %           ",
"        % & * =   - ; > , ' = ) ! ~ { ]         ",
"        ^ / ( _ : < [ } | ' 1 _ 2 ~ % 3         ",
"        4 / 5 6 7 8 9 0 a b c d / e f g h       ",
"          i / / / / / / / / / / / j 3 k l       ",
"          m / n o p / q r s t / / u v w x y     ",
"          z z A B C / D E F n / / j G H I       ",
"          J z K L M / N K O M / / j P h Q R     ",
"          S z T U V / W T X V / / u Y h Z       ",
"          ` t  ...t / t  . ./ / / u +.h @.#.    ",
"        $.%./ ../ / / / / / / / &.*.=.-.Z ;.    ",
"      >.,./ '.)./ / !./ / / / / ~.{.].^.Z ;.    ",
"    /.(./ _.:.<.[...}./ / / / / |.1.2.3.4.      ",
"5.5.6.7.8.9.0.a.b.c.d.e.5.f.g.h.i.j.k.l.m.n.    ",
"    o./ / / p.q.r.s./ / / / / t.u.v.w.x.        ",
"5.5.y.z./ / / A./ / / B.C.D.E.F.G.H.I.;.J.      ",
"      K.L.M.N.O.P.Q.R.S.T.U.V.W.X.Y.Z.`.        ",
"       +/ .+/ / / ++@+/ / #+$+%+&+*+=+          ",
"      -+/ / / ;+/ / / >+,+'+)+!+~+{+]+^+        ",
"        /+(+_+:+<+[+}+|+1+2+3+4+5+6+            ",
"      7+7+8+9+0+a+b+c+d+e+  f+                  ",
"          g+h+      i+  j+                      ",
"                                                "};
