/* XPM */
static char * viewpdf5_xpm[] = {
"24 24 27 1",
" 	c None s backgroundToolBarColor",
".	c #090909",
"+	c #000000",
"@	c #292929",
"#	c #8E8E8E",
"$	c #2D2D2D",
"%	c #303030",
"&	c #2B2B2B",
"*	c #3C3C3C",
"=	c #1F1F1F",
"-	c #101010",
";	c #1A1A1A",
">	c #2E2E2E",
",	c #FFFFFF",
"'	c #C3C3C3",
")	c #252525",
"!	c #191919",
"~	c #131313",
"{	c #1D1D1D",
"]	c #0D0D0D",
"^	c #121212",
"/	c #444444",
"(	c #3B3B3B",
"_	c #3D3D3D",
":	c #080808",
"<	c #B50000",
"[	c #AA7979",
"        .+              ",
"       @# +             ",
"      $#  @             ",
"     %#  &#             ",
"    @#            ++    ",
"   *=-           ;# +   ",
"  >,,')         !#  ~   ",
"  >,,  +       !#  {#   ",
"  ],,  ++ *=- =#        ",
"  #^  /+ >,,')#         ",
"   ($_:  >,,  +         ",
"    ##   ],,  +         ",
"         #^  /+         ",
"          ($_:          ",
"           ##           ",
"                        ",
"          <<<[ <<<[ <<<[",
"          <  < <  < <   ",
"          <  < <  < <   ",
"          <<<[ <  < <<[ ",
"          <    <  < <   ",
"          <    <  < <   ",
"          <    <<<[ <   ",
"                        "};
